<?xml version="1.0" encoding="UTF-8" standalone="no"?><svg xmlns="http://www.w3.org/2000/svg" xmlns:xlink="http://www.w3.org/1999/xlink" clip-rule="evenodd" stroke-miterlimit="10" viewBox="0 0 1024 768"><desc>SVG generated by Keynote</desc><defs></defs><g transform="matrix(1.00, 0.00, -0.00, -1.00, 0.0, 768.0)"><path d="M 0.0 768.0 L 1024.0 768.0 L 1024.0 0.0 L 0.0 0.0 Z M 0.0 768.0 " fill="#FEFFFF"></path><image xlink:href="../../79CEC0ED-B611-4695-B06F-D725DFC4C3AD/assets/8F475106A2362E144E9438ED9453580C.jpeg" width="1153.00" height="768.00" transform="matrix(1.00, 0.00, -0.00, -1.00, -121.0, 768.0)"></image><path d="M 100.5 747.5 L 924.5 747.5 L 924.5 619.5 L 100.5 619.5 Z M 100.0 748.0 " fill="#FFFFFF"></path><path d="M 0.5 0.5 L 824.5 0.5 L 824.5 128.5 L 0.5 128.5 Z M 0.0 0.0 " fill="none" stroke="#000000" stroke-width="3.00" transform="matrix(1.00, 0.00, 0.00, -1.00, 100.0, 748.0)"></path><g><clipPath id="clip0x7ffbef4a4600"><path d="M 87.6 622.0 L 936.4 622.0 L 936.4 746.0 L 87.6 746.0 Z M 87.6 622.0 "></path></clipPath><g clip-path="url(#clip0x7ffbef4a4600)"><text xml:space="preserve" font-family="GillSans,Gill Sans" font-size="64.0" fill="#000000" transform="matrix(1.00, 0.00, -0.00, -1.00, 371.2, 661.8)">T</text><text xml:space="preserve" font-family="GillSans,Gill Sans" font-size="64.0" fill="#000000" transform="matrix(1.00, 0.00, -0.00, -1.00, 409.8, 661.8)">h</text><text xml:space="preserve" font-family="GillSans,Gill Sans" font-size="64.0" fill="#000000" transform="matrix(1.00, 0.00, -0.00, -1.00, 441.8, 661.8)">e</text><text xml:space="preserve" font-family="GillSans,Gill Sans" font-size="64.0" fill="#000000" transform="matrix(1.00, 0.00, -0.00, -1.00, 472.5, 661.8)"> </text><text xml:space="preserve" font-family="GillSans,Gill Sans" font-size="64.0" fill="#000000" transform="matrix(1.00, 0.00, -0.00, -1.00, 490.2, 661.8)">M</text><text xml:space="preserve" font-family="GillSans,Gill Sans" font-size="64.0" fill="#000000" transform="matrix(1.00, 0.00, -0.00, -1.00, 540.2, 661.8)">o</text><text xml:space="preserve" font-family="GillSans,Gill Sans" font-size="64.0" fill="#000000" transform="matrix(1.00, 0.00, -0.00, -1.00, 575.5, 661.8)">d</text><text xml:space="preserve" font-family="GillSans,Gill Sans" font-size="64.0" fill="#000000" transform="matrix(1.00, 0.00, -0.00, -1.00, 608.1, 661.8)">e</text><text xml:space="preserve" font-family="GillSans,Gill Sans" font-size="64.0" fill="#000000" transform="matrix(1.00, 0.00, -0.00, -1.00, 638.8, 661.8)">l</text></g></g><path d="M 72.5 593.5 L 951.5 593.5 L 951.5 344.5 L 72.5 344.5 Z M 72.2 593.8 " fill="#FFFFFF"></path><path d="M 0.3 0.3 L 879.3 0.3 L 879.3 249.3 L 0.3 249.3 Z M 0.0 0.0 " fill="none" stroke="#000000" stroke-width="3.00" transform="matrix(1.00, 0.00, 0.00, -1.00, 72.2, 593.8)"></path><g><clipPath id="clip0x7ffbef4b61c0"><path d="M 68.5 346.7 L 955.5 346.7 L 955.5 591.8 L 68.5 591.8 Z M 68.5 346.7 "></path></clipPath><g clip-path="url(#clip0x7ffbef4b61c0)"><text xml:space="preserve" font-family="GillSans,Gill Sans" font-size="34.0" fill="#000000" transform="matrix(1.00, 0.00, -0.00, -1.00, 78.2, 549.6)">F</text><text xml:space="preserve" font-family="GillSans,Gill Sans" font-size="34.0" fill="#000000" transform="matrix(1.00, 0.00, -0.00, -1.00, 93.7, 549.6)">e</text><text xml:space="preserve" font-family="GillSans,Gill Sans" font-size="34.0" fill="#000000" transform="matrix(1.00, 0.00, -0.00, -1.00, 110.0, 549.6)">a</text><text xml:space="preserve" font-family="GillSans,Gill Sans" font-size="34.0" fill="#000000" transform="matrix(1.00, 0.00, -0.00, -1.00, 124.5, 549.6)">t</text><text xml:space="preserve" font-family="GillSans,Gill Sans" font-size="34.0" fill="#000000" transform="matrix(1.00, 0.00, -0.00, -1.00, 135.8, 549.6)">u</text><text xml:space="preserve" font-family="GillSans,Gill Sans" font-size="34.0" fill="#000000" transform="matrix(1.00, 0.00, -0.00, -1.00, 152.8, 549.6)">r</text><text xml:space="preserve" font-family="GillSans,Gill Sans" font-size="34.0" fill="#000000" transform="matrix(1.00, 0.00, -0.00, -1.00, 165.6, 549.6)">e</text><text xml:space="preserve" font-family="GillSans,Gill Sans" font-size="34.0" fill="#000000" transform="matrix(1.00, 0.00, -0.00, -1.00, 181.9, 549.6)">s</text><text xml:space="preserve" font-family="GillSans,Gill Sans" font-size="34.0" fill="#000000" transform="matrix(1.00, 0.00, -0.00, -1.00, 194.9, 549.6)">:</text><text xml:space="preserve" font-family="GillSans,Gill Sans" font-size="36.0" fill="#000000" transform="matrix(1.00, 0.00, -0.00, -1.00, 103.2, 501.1)">•</text><text xml:space="preserve" font-family="GillSans,Gill Sans" font-size="30.0" fill="#000000" transform="matrix(1.00, 0.00, -0.00, -1.00, 148.2, 502.7)">S</text><text xml:space="preserve" font-family="GillSans,Gill Sans" font-size="30.0" fill="#000000" transform="matrix(1.00, 0.00, -0.00, -1.00, 162.0, 502.7)">&amp;</text><text xml:space="preserve" font-family="GillSans,Gill Sans" font-size="30.0" fill="#000000" transform="matrix(1.00, 0.00, -0.00, -1.00, 180.7, 502.7)">P</text><text xml:space="preserve" font-family="GillSans,Gill Sans" font-size="30.0" fill="#000000" transform="matrix(1.00, 0.00, -0.00, -1.00, 196.0, 502.7)"> </text><text xml:space="preserve" font-family="GillSans,Gill Sans" font-size="30.0" fill="#000000" transform="matrix(1.00, 0.00, -0.00, -1.00, 204.3, 502.7)">5</text><text xml:space="preserve" font-family="GillSans,Gill Sans" font-size="30.0" fill="#000000" transform="matrix(1.00, 0.00, -0.00, -1.00, 219.3, 502.7)">0</text><text xml:space="preserve" font-family="GillSans,Gill Sans" font-size="30.0" fill="#000000" transform="matrix(1.00, 0.00, -0.00, -1.00, 234.3, 502.7)">0</text><text xml:space="preserve" font-family="GillSans,Gill Sans" font-size="36.0" fill="#000000" transform="matrix(1.00, 0.00, -0.00, -1.00, 103.2, 455.1)">•</text><text xml:space="preserve" font-family="GillSans,Gill Sans" font-size="30.0" fill="#000000" transform="matrix(1.00, 0.00, -0.00, -1.00, 148.2, 456.7)">U</text><text xml:space="preserve" font-family="GillSans,Gill Sans" font-size="30.0" fill="#000000" transform="matrix(1.00, 0.00, -0.00, -1.00, 169.5, 456.7)">n</text><text xml:space="preserve" font-family="GillSans,Gill Sans" font-size="30.0" fill="#000000" transform="matrix(1.00, 0.00, -0.00, -1.00, 184.5, 456.7)">e</text><text xml:space="preserve" font-family="GillSans,Gill Sans" font-size="30.0" fill="#000000" transform="matrix(1.00, 0.00, -0.00, -1.00, 198.8, 456.7)">m</text><text xml:space="preserve" font-family="GillSans,Gill Sans" font-size="30.0" fill="#000000" transform="matrix(1.00, 0.00, -0.00, -1.00, 222.0, 456.7)">p</text><text xml:space="preserve" font-family="GillSans,Gill Sans" font-size="30.0" fill="#000000" transform="matrix(1.00, 0.00, -0.00, -1.00, 237.0, 456.7)">l</text><text xml:space="preserve" font-family="GillSans,Gill Sans" font-size="30.0" fill="#000000" transform="matrix(1.00, 0.00, -0.00, -1.00, 243.5, 456.7)">o</text><text xml:space="preserve" font-family="GillSans,Gill Sans" font-size="30.0" fill="#000000" transform="matrix(1.00, 0.00, -0.00, -1.00, 259.5, 456.7)">y</text><text xml:space="preserve" font-family="GillSans,Gill Sans" font-size="30.0" fill="#000000" transform="matrix(1.00, 0.00, -0.00, -1.00, 272.6, 456.7)">m</text><text xml:space="preserve" font-family="GillSans,Gill Sans" font-size="30.0" fill="#000000" transform="matrix(1.00, 0.00, -0.00, -1.00, 295.8, 456.7)">e</text><text xml:space="preserve" font-family="GillSans,Gill Sans" font-size="30.0" fill="#000000" transform="matrix(1.00, 0.00, -0.00, -1.00, 310.1, 456.7)">n</text><text xml:space="preserve" font-family="GillSans,Gill Sans" font-size="30.0" fill="#000000" transform="matrix(1.00, 0.00, -0.00, -1.00, 325.1, 456.7)">t</text><text xml:space="preserve" font-family="GillSans,Gill Sans" font-size="30.0" fill="#000000" transform="matrix(1.00, 0.00, -0.00, -1.00, 335.1, 456.7)"> </text><text xml:space="preserve" font-family="GillSans,Gill Sans" font-size="30.0" fill="#000000" transform="matrix(1.00, 0.00, -0.00, -1.00, 343.4, 456.7)">R</text><text xml:space="preserve" font-family="GillSans,Gill Sans" font-size="30.0" fill="#000000" transform="matrix(1.00, 0.00, -0.00, -1.00, 361.6, 456.7)">a</text><text xml:space="preserve" font-family="GillSans,Gill Sans" font-size="30.0" fill="#000000" transform="matrix(1.00, 0.00, -0.00, -1.00, 374.4, 456.7)">t</text><text xml:space="preserve" font-family="GillSans,Gill Sans" font-size="30.0" fill="#000000" transform="matrix(1.00, 0.00, -0.00, -1.00, 384.4, 456.7)">e</text><text xml:space="preserve" font-family="GillSans,Gill Sans" font-size="36.0" fill="#000000" transform="matrix(1.00, 0.00, -0.00, -1.00, 103.2, 409.1)">•</text><text xml:space="preserve" font-family="GillSans,Gill Sans" font-size="30.0" fill="#000000" transform="matrix(1.00, 0.00, -0.00, -1.00, 148.2, 410.7)">S</text><text xml:space="preserve" font-family="GillSans,Gill Sans" font-size="30.0" fill="#000000" transform="matrix(1.00, 0.00, -0.00, -1.00, 162.0, 410.7)">e</text><text xml:space="preserve" font-family="GillSans,Gill Sans" font-size="30.0" fill="#000000" transform="matrix(1.00, 0.00, -0.00, -1.00, 176.3, 410.7)">n</text><text xml:space="preserve" font-family="GillSans,Gill Sans" font-size="30.0" fill="#000000" transform="matrix(1.00, 0.00, -0.00, -1.00, 191.3, 410.7)">t</text><text xml:space="preserve" font-family="GillSans,Gill Sans" font-size="30.0" fill="#000000" transform="matrix(1.00, 0.00, -0.00, -1.00, 201.3, 410.7)">i</text><text xml:space="preserve" font-family="GillSans,Gill Sans" font-size="30.0" fill="#000000" transform="matrix(1.00, 0.00, -0.00, -1.00, 207.9, 410.7)">m</text><text xml:space="preserve" font-family="GillSans,Gill Sans" font-size="30.0" fill="#000000" transform="matrix(1.00, 0.00, -0.00, -1.00, 231.0, 410.7)">e</text><text xml:space="preserve" font-family="GillSans,Gill Sans" font-size="30.0" fill="#000000" transform="matrix(1.00, 0.00, -0.00, -1.00, 245.4, 410.7)">n</text><text xml:space="preserve" font-family="GillSans,Gill Sans" font-size="30.0" fill="#000000" transform="matrix(1.00, 0.00, -0.00, -1.00, 260.4, 410.7)">t</text><text xml:space="preserve" font-family="GillSans,Gill Sans" font-size="30.0" fill="#000000" transform="matrix(1.00, 0.00, -0.00, -1.00, 270.4, 410.7)"> </text><text xml:space="preserve" font-family="GillSans,Gill Sans" font-size="30.0" fill="#000000" transform="matrix(1.00, 0.00, -0.00, -1.00, 278.7, 410.7)">o</text><text xml:space="preserve" font-family="GillSans,Gill Sans" font-size="30.0" fill="#000000" transform="matrix(1.00, 0.00, -0.00, -1.00, 295.3, 410.7)">f</text><text xml:space="preserve" font-family="GillSans,Gill Sans" font-size="30.0" fill="#000000" transform="matrix(1.00, 0.00, -0.00, -1.00, 302.8, 410.7)"> </text><text xml:space="preserve" font-family="GillSans,Gill Sans" font-size="30.0" fill="#000000" transform="matrix(1.00, 0.00, -0.00, -1.00, 311.1, 410.7)">1</text><text xml:space="preserve" font-family="GillSans,Gill Sans" font-size="30.0" fill="#000000" transform="matrix(1.00, 0.00, -0.00, -1.00, 326.1, 410.7)">7</text><text xml:space="preserve" font-family="GillSans,Gill Sans" font-size="30.0" fill="#000000" transform="matrix(1.00, 0.00, -0.00, -1.00, 341.1, 410.7)">,</text><text xml:space="preserve" font-family="GillSans,Gill Sans" font-size="30.0" fill="#000000" transform="matrix(1.00, 0.00, -0.00, -1.00, 347.7, 410.7)">0</text><text xml:space="preserve" font-family="GillSans,Gill Sans" font-size="30.0" fill="#000000" transform="matrix(1.00, 0.00, -0.00, -1.00, 362.7, 410.7)">0</text><text xml:space="preserve" font-family="GillSans,Gill Sans" font-size="30.0" fill="#000000" transform="matrix(1.00, 0.00, -0.00, -1.00, 377.7, 410.7)">0</text><text xml:space="preserve" font-family="GillSans,Gill Sans" font-size="30.0" fill="#000000" transform="matrix(1.00, 0.00, -0.00, -1.00, 392.7, 410.7)"> </text><text xml:space="preserve" font-family="GillSans,Gill Sans" font-size="30.0" fill="#000000" transform="matrix(1.00, 0.00, -0.00, -1.00, 401.0, 410.7)">N</text><text xml:space="preserve" font-family="GillSans,Gill Sans" font-size="30.0" fill="#000000" transform="matrix(1.00, 0.00, -0.00, -1.00, 424.4, 410.7)">Y</text><text xml:space="preserve" font-family="GillSans,Gill Sans" font-size="30.0" fill="#000000" transform="matrix(1.00, 0.00, -0.00, -1.00, 442.6, 410.7)">T</text><text xml:space="preserve" font-family="GillSans,Gill Sans" font-size="30.0" fill="#000000" transform="matrix(1.00, 0.00, -0.00, -1.00, 460.7, 410.7)">i</text><text xml:space="preserve" font-family="GillSans,Gill Sans" font-size="30.0" fill="#000000" transform="matrix(1.00, 0.00, -0.00, -1.00, 467.3, 410.7)">m</text><text xml:space="preserve" font-family="GillSans,Gill Sans" font-size="30.0" fill="#000000" transform="matrix(1.00, 0.00, -0.00, -1.00, 490.4, 410.7)">e</text><text xml:space="preserve" font-family="GillSans,Gill Sans" font-size="30.0" fill="#000000" transform="matrix(1.00, 0.00, -0.00, -1.00, 504.8, 410.7)">s</text><text xml:space="preserve" font-family="GillSans,Gill Sans" font-size="30.0" fill="#000000" transform="matrix(1.00, 0.00, -0.00, -1.00, 516.3, 410.7)"> </text><text xml:space="preserve" font-family="GillSans,Gill Sans" font-size="30.0" fill="#000000" transform="matrix(1.00, 0.00, -0.00, -1.00, 524.6, 410.7)">n</text><text xml:space="preserve" font-family="GillSans,Gill Sans" font-size="30.0" fill="#000000" transform="matrix(1.00, 0.00, -0.00, -1.00, 539.6, 410.7)">e</text><text xml:space="preserve" font-family="GillSans,Gill Sans" font-size="30.0" fill="#000000" transform="matrix(1.00, 0.00, -0.00, -1.00, 553.5, 410.7)">w</text><text xml:space="preserve" font-family="GillSans,Gill Sans" font-size="30.0" fill="#000000" transform="matrix(1.00, 0.00, -0.00, -1.00, 575.1, 410.7)">s</text><text xml:space="preserve" font-family="GillSans,Gill Sans" font-size="30.0" fill="#000000" transform="matrix(1.00, 0.00, -0.00, -1.00, 586.7, 410.7)"> </text><text xml:space="preserve" font-family="GillSans,Gill Sans" font-size="30.0" fill="#000000" transform="matrix(1.00, 0.00, -0.00, -1.00, 595.0, 410.7)">a</text><text xml:space="preserve" font-family="GillSans,Gill Sans" font-size="30.0" fill="#000000" transform="matrix(1.00, 0.00, -0.00, -1.00, 607.8, 410.7)">r</text><text xml:space="preserve" font-family="GillSans,Gill Sans" font-size="30.0" fill="#000000" transform="matrix(1.00, 0.00, -0.00, -1.00, 620.3, 410.7)">t</text><text xml:space="preserve" font-family="GillSans,Gill Sans" font-size="30.0" fill="#000000" transform="matrix(1.00, 0.00, -0.00, -1.00, 630.3, 410.7)">i</text><text xml:space="preserve" font-family="GillSans,Gill Sans" font-size="30.0" fill="#000000" transform="matrix(1.00, 0.00, -0.00, -1.00, 636.8, 410.7)">c</text><text xml:space="preserve" font-family="GillSans,Gill Sans" font-size="30.0" fill="#000000" transform="matrix(1.00, 0.00, -0.00, -1.00, 650.0, 410.7)">l</text><text xml:space="preserve" font-family="GillSans,Gill Sans" font-size="30.0" fill="#000000" transform="matrix(1.00, 0.00, -0.00, -1.00, 656.6, 410.7)">e</text><text xml:space="preserve" font-family="GillSans,Gill Sans" font-size="30.0" fill="#000000" transform="matrix(1.00, 0.00, -0.00, -1.00, 670.9, 410.7)">s</text><text xml:space="preserve" font-family="GillSans,Gill Sans" font-size="30.0" fill="#000000" transform="matrix(1.00, 0.00, -0.00, -1.00, 682.5, 410.7)"> </text><text xml:space="preserve" font-family="GillSans,Gill Sans" font-size="30.0" fill="#000000" transform="matrix(1.00, 0.00, -0.00, -1.00, 690.8, 410.7)">o</text><text xml:space="preserve" font-family="GillSans,Gill Sans" font-size="30.0" fill="#000000" transform="matrix(1.00, 0.00, -0.00, -1.00, 707.3, 410.7)">n</text><text xml:space="preserve" font-family="GillSans,Gill Sans" font-size="30.0" fill="#000000" transform="matrix(1.00, 0.00, -0.00, -1.00, 722.3, 410.7)"> </text><text xml:space="preserve" font-family="GillSans,Gill Sans" font-size="30.0" fill="#000000" transform="matrix(1.00, 0.00, -0.00, -1.00, 730.7, 410.7)">t</text><text xml:space="preserve" font-family="GillSans,Gill Sans" font-size="30.0" fill="#000000" transform="matrix(1.00, 0.00, -0.00, -1.00, 740.7, 410.7)">h</text><text xml:space="preserve" font-family="GillSans,Gill Sans" font-size="30.0" fill="#000000" transform="matrix(1.00, 0.00, -0.00, -1.00, 755.7, 410.7)">e</text><text xml:space="preserve" font-family="GillSans,Gill Sans" font-size="30.0" fill="#000000" transform="matrix(1.00, 0.00, -0.00, -1.00, 770.0, 410.7)"> </text><text xml:space="preserve" font-family="GillSans,Gill Sans" font-size="30.0" fill="#000000" transform="matrix(1.00, 0.00, -0.00, -1.00, 778.4, 410.7)">U</text><text xml:space="preserve" font-family="GillSans,Gill Sans" font-size="30.0" fill="#000000" transform="matrix(1.00, 0.00, -0.00, -1.00, 799.6, 410.7)">S</text><text xml:space="preserve" font-family="GillSans,Gill Sans" font-size="30.0" fill="#000000" transform="matrix(1.00, 0.00, -0.00, -1.00, 813.3, 410.7)"> </text><text xml:space="preserve" font-family="GillSans,Gill Sans" font-size="30.0" fill="#000000" transform="matrix(1.00, 0.00, -0.00, -1.00, 821.7, 410.7)">E</text><text xml:space="preserve" font-family="GillSans,Gill Sans" font-size="30.0" fill="#000000" transform="matrix(1.00, 0.00, -0.00, -1.00, 836.7, 410.7)">c</text><text xml:space="preserve" font-family="GillSans,Gill Sans" font-size="30.0" fill="#000000" transform="matrix(1.00, 0.00, -0.00, -1.00, 849.8, 410.7)">o</text><text xml:space="preserve" font-family="GillSans,Gill Sans" font-size="30.0" fill="#000000" transform="matrix(1.00, 0.00, -0.00, -1.00, 866.4, 410.7)">n</text><text xml:space="preserve" font-family="GillSans,Gill Sans" font-size="30.0" fill="#000000" transform="matrix(1.00, 0.00, -0.00, -1.00, 881.4, 410.7)">o</text><text xml:space="preserve" font-family="GillSans,Gill Sans" font-size="30.0" fill="#000000" transform="matrix(1.00, 0.00, -0.00, -1.00, 897.9, 410.7)">m</text><text xml:space="preserve" font-family="GillSans,Gill Sans" font-size="30.0" fill="#000000" transform="matrix(1.00, 0.00, -0.00, -1.00, 920.0, 410.7)">y</text><text xml:space="preserve" font-family="GillSans,Gill Sans" font-size="36.0" fill="#000000" transform="matrix(1.00, 0.00, -0.00, -1.00, 103.2, 363.1)">•</text><text xml:space="preserve" font-family="GillSans,Gill Sans" font-size="30.0" fill="#000000" transform="matrix(1.00, 0.00, -0.00, -1.00, 148.2, 364.7)">G</text><text xml:space="preserve" font-family="GillSans,Gill Sans" font-size="30.0" fill="#000000" transform="matrix(1.00, 0.00, -0.00, -1.00, 170.4, 364.7)">o</text><text xml:space="preserve" font-family="GillSans,Gill Sans" font-size="30.0" fill="#000000" transform="matrix(1.00, 0.00, -0.00, -1.00, 187.0, 364.7)">o</text><text xml:space="preserve" font-family="GillSans,Gill Sans" font-size="30.0" fill="#000000" transform="matrix(1.00, 0.00, -0.00, -1.00, 203.5, 364.7)">g</text><text xml:space="preserve" font-family="GillSans,Gill Sans" font-size="30.0" fill="#000000" transform="matrix(1.00, 0.00, -0.00, -1.00, 216.3, 364.7)">l</text><text xml:space="preserve" font-family="GillSans,Gill Sans" font-size="30.0" fill="#000000" transform="matrix(1.00, 0.00, -0.00, -1.00, 222.9, 364.7)">e</text><text xml:space="preserve" font-family="GillSans,Gill Sans" font-size="30.0" fill="#000000" transform="matrix(1.00, 0.00, -0.00, -1.00, 237.3, 364.7)"> </text><text xml:space="preserve" font-family="GillSans,Gill Sans" font-size="30.0" fill="#000000" transform="matrix(1.00, 0.00, -0.00, -1.00, 241.9, 364.7)">T</text><text xml:space="preserve" font-family="GillSans,Gill Sans" font-size="30.0" fill="#000000" transform="matrix(1.00, 0.00, -0.00, -1.00, 256.2, 364.7)">r</text><text xml:space="preserve" font-family="GillSans,Gill Sans" font-size="30.0" fill="#000000" transform="matrix(1.00, 0.00, -0.00, -1.00, 267.5, 364.7)">e</text><text xml:space="preserve" font-family="GillSans,Gill Sans" font-size="30.0" fill="#000000" transform="matrix(1.00, 0.00, -0.00, -1.00, 281.9, 364.7)">n</text><text xml:space="preserve" font-family="GillSans,Gill Sans" font-size="30.0" fill="#000000" transform="matrix(1.00, 0.00, -0.00, -1.00, 296.9, 364.7)">d</text><text xml:space="preserve" font-family="GillSans,Gill Sans" font-size="30.0" fill="#000000" transform="matrix(1.00, 0.00, -0.00, -1.00, 312.2, 364.7)">s</text><text xml:space="preserve" font-family="GillSans,Gill Sans" font-size="30.0" fill="#000000" transform="matrix(1.00, 0.00, -0.00, -1.00, 323.7, 364.7)"> </text><text xml:space="preserve" font-family="GillSans,Gill Sans" font-size="30.0" fill="#000000" transform="matrix(1.00, 0.00, -0.00, -1.00, 332.0, 364.7)">o</text><text xml:space="preserve" font-family="GillSans,Gill Sans" font-size="30.0" fill="#000000" transform="matrix(1.00, 0.00, -0.00, -1.00, 348.6, 364.7)">f</text><text xml:space="preserve" font-family="GillSans,Gill Sans" font-size="30.0" fill="#000000" transform="matrix(1.00, 0.00, -0.00, -1.00, 356.1, 364.7)"> </text><text xml:space="preserve" font-family="GillSans,Gill Sans" font-size="30.0" fill="#000000" transform="matrix(1.00, 0.00, -0.00, -1.00, 364.4, 364.7)">n</text><text xml:space="preserve" font-family="GillSans,Gill Sans" font-size="30.0" fill="#000000" transform="matrix(1.00, 0.00, -0.00, -1.00, 379.4, 364.7)">e</text><text xml:space="preserve" font-family="GillSans,Gill Sans" font-size="30.0" fill="#000000" transform="matrix(1.00, 0.00, -0.00, -1.00, 393.8, 364.7)">g</text><text xml:space="preserve" font-family="GillSans,Gill Sans" font-size="30.0" fill="#000000" transform="matrix(1.00, 0.00, -0.00, -1.00, 406.6, 364.7)">a</text><text xml:space="preserve" font-family="GillSans,Gill Sans" font-size="30.0" fill="#000000" transform="matrix(1.00, 0.00, -0.00, -1.00, 419.4, 364.7)">t</text><text xml:space="preserve" font-family="GillSans,Gill Sans" font-size="30.0" fill="#000000" transform="matrix(1.00, 0.00, -0.00, -1.00, 429.4, 364.7)">i</text><text xml:space="preserve" font-family="GillSans,Gill Sans" font-size="30.0" fill="#000000" transform="matrix(1.00, 0.00, -0.00, -1.00, 435.9, 364.7)">v</text><text xml:space="preserve" font-family="GillSans,Gill Sans" font-size="30.0" fill="#000000" transform="matrix(1.00, 0.00, -0.00, -1.00, 448.5, 364.7)">e</text><text xml:space="preserve" font-family="GillSans,Gill Sans" font-size="30.0" fill="#000000" transform="matrix(1.00, 0.00, -0.00, -1.00, 462.9, 364.7)"> </text><text xml:space="preserve" font-family="GillSans,Gill Sans" font-size="30.0" fill="#000000" transform="matrix(1.00, 0.00, -0.00, -1.00, 471.2, 364.7)">e</text><text xml:space="preserve" font-family="GillSans,Gill Sans" font-size="30.0" fill="#000000" transform="matrix(1.00, 0.00, -0.00, -1.00, 485.6, 364.7)">c</text><text xml:space="preserve" font-family="GillSans,Gill Sans" font-size="30.0" fill="#000000" transform="matrix(1.00, 0.00, -0.00, -1.00, 498.7, 364.7)">o</text><text xml:space="preserve" font-family="GillSans,Gill Sans" font-size="30.0" fill="#000000" transform="matrix(1.00, 0.00, -0.00, -1.00, 515.2, 364.7)">n</text><text xml:space="preserve" font-family="GillSans,Gill Sans" font-size="30.0" fill="#000000" transform="matrix(1.00, 0.00, -0.00, -1.00, 530.2, 364.7)">o</text><text xml:space="preserve" font-family="GillSans,Gill Sans" font-size="30.0" fill="#000000" transform="matrix(1.00, 0.00, -0.00, -1.00, 546.8, 364.7)">m</text><text xml:space="preserve" font-family="GillSans,Gill Sans" font-size="30.0" fill="#000000" transform="matrix(1.00, 0.00, -0.00, -1.00, 569.9, 364.7)">i</text><text xml:space="preserve" font-family="GillSans,Gill Sans" font-size="30.0" fill="#000000" transform="matrix(1.00, 0.00, -0.00, -1.00, 576.5, 364.7)">c</text><text xml:space="preserve" font-family="GillSans,Gill Sans" font-size="30.0" fill="#000000" transform="matrix(1.00, 0.00, -0.00, -1.00, 589.6, 364.7)"> </text><text xml:space="preserve" font-family="GillSans,Gill Sans" font-size="30.0" fill="#000000" transform="matrix(1.00, 0.00, -0.00, -1.00, 598.0, 364.7)">t</text><text xml:space="preserve" font-family="GillSans,Gill Sans" font-size="30.0" fill="#000000" transform="matrix(1.00, 0.00, -0.00, -1.00, 608.0, 364.7)">e</text><text xml:space="preserve" font-family="GillSans,Gill Sans" font-size="30.0" fill="#000000" transform="matrix(1.00, 0.00, -0.00, -1.00, 622.3, 364.7)">r</text><text xml:space="preserve" font-family="GillSans,Gill Sans" font-size="30.0" fill="#000000" transform="matrix(1.00, 0.00, -0.00, -1.00, 634.2, 364.7)">m</text><text xml:space="preserve" font-family="GillSans,Gill Sans" font-size="30.0" fill="#000000" transform="matrix(1.00, 0.00, -0.00, -1.00, 657.3, 364.7)">s</text></g></g><image xlink:href="9D35FCB60EC7052319831191A6E9FF40.png" width="627.00" height="524.00" transform="matrix(0.63, 0.00, -0.00, -0.63, 610.0, 337.0)"></image><path d="M -0.0 0.5 L 398.0 0.5 L 398.0 332.5 L -0.0 332.5 Z M -0.0 0.5 " fill="none" stroke="#000000" stroke-width="2.00" transform="matrix(1.00, 0.00, 0.00, -1.00, 610.0, 337.5)"></path><path d="M 73.5 310.5 L 540.5 310.5 L 540.5 47.5 L 73.5 47.5 Z M 73.8 310.2 " fill="#FFFFFF"></path><path d="M -0.3 -0.3 L 466.7 -0.3 L 466.7 262.7 L -0.3 262.7 Z M 0.0 0.0 " fill="none" stroke="#000000" stroke-width="3.00" transform="matrix(1.00, 0.00, 0.00, -1.00, 73.8, 310.2)"></path><g><clipPath id="clip0x7ffbef4e6a30"><path d="M 70.0 49.3 L 544.1 49.3 L 544.1 308.2 L 70.0 308.2 Z M 70.0 49.3 "></path></clipPath><g clip-path="url(#clip0x7ffbef4e6a30)"><text xml:space="preserve" font-family="GillSans,Gill Sans" font-size="34.0" fill="#000000" transform="matrix(1.00, 0.00, -0.00, -1.00, 79.8, 265.0)">A</text><text xml:space="preserve" font-family="GillSans,Gill Sans" font-size="34.0" fill="#000000" transform="matrix(1.00, 0.00, -0.00, -1.00, 102.5, 265.0)">l</text><text xml:space="preserve" font-family="GillSans,Gill Sans" font-size="34.0" fill="#000000" transform="matrix(1.00, 0.00, -0.00, -1.00, 109.9, 265.0)">g</text><text xml:space="preserve" font-family="GillSans,Gill Sans" font-size="34.0" fill="#000000" transform="matrix(1.00, 0.00, -0.00, -1.00, 124.1, 265.0)">o</text><text xml:space="preserve" font-family="GillSans,Gill Sans" font-size="34.0" fill="#000000" transform="matrix(1.00, 0.00, -0.00, -1.00, 142.9, 265.0)">r</text><text xml:space="preserve" font-family="GillSans,Gill Sans" font-size="34.0" fill="#000000" transform="matrix(1.00, 0.00, -0.00, -1.00, 156.3, 265.0)">i</text><text xml:space="preserve" font-family="GillSans,Gill Sans" font-size="34.0" fill="#000000" transform="matrix(1.00, 0.00, -0.00, -1.00, 163.8, 265.0)">t</text><text xml:space="preserve" font-family="GillSans,Gill Sans" font-size="34.0" fill="#000000" transform="matrix(1.00, 0.00, -0.00, -1.00, 175.1, 265.0)">h</text><text xml:space="preserve" font-family="GillSans,Gill Sans" font-size="34.0" fill="#000000" transform="matrix(1.00, 0.00, -0.00, -1.00, 192.1, 265.0)">m</text><text xml:space="preserve" font-family="GillSans,Gill Sans" font-size="34.0" fill="#000000" transform="matrix(1.00, 0.00, -0.00, -1.00, 218.3, 265.0)">:</text><text xml:space="preserve" font-family="GillSans,Gill Sans" font-size="36.0" fill="#000000" transform="matrix(1.00, 0.00, -0.00, -1.00, 104.8, 216.5)">•</text><text xml:space="preserve" font-family="GillSans,Gill Sans" font-size="30.0" fill="#000000" transform="matrix(1.00, 0.00, -0.00, -1.00, 149.8, 218.1)">F</text><text xml:space="preserve" font-family="GillSans,Gill Sans" font-size="30.0" fill="#000000" transform="matrix(1.00, 0.00, -0.00, -1.00, 163.9, 218.1)">i</text><text xml:space="preserve" font-family="GillSans,Gill Sans" font-size="30.0" fill="#000000" transform="matrix(1.00, 0.00, -0.00, -1.00, 170.5, 218.1)">t</text><text xml:space="preserve" font-family="GillSans,Gill Sans" font-size="30.0" fill="#000000" transform="matrix(1.00, 0.00, -0.00, -1.00, 180.5, 218.1)"> </text><text xml:space="preserve" font-family="GillSans,Gill Sans" font-size="30.0" fill="#000000" transform="matrix(1.00, 0.00, -0.00, -1.00, 188.8, 218.1)">a</text><text xml:space="preserve" font-family="GillSans,Gill Sans" font-size="30.0" fill="#000000" transform="matrix(1.00, 0.00, -0.00, -1.00, 201.6, 218.1)"> </text><text xml:space="preserve" font-family="GillSans,Gill Sans" font-size="30.0" fill="#000000" transform="matrix(1.00, 0.00, -0.00, -1.00, 209.9, 218.1)">t</text><text xml:space="preserve" font-family="GillSans,Gill Sans" font-size="30.0" fill="#000000" transform="matrix(1.00, 0.00, -0.00, -1.00, 219.9, 218.1)">i</text><text xml:space="preserve" font-family="GillSans,Gill Sans" font-size="30.0" fill="#000000" transform="matrix(1.00, 0.00, -0.00, -1.00, 226.5, 218.1)">m</text><text xml:space="preserve" font-family="GillSans,Gill Sans" font-size="30.0" fill="#000000" transform="matrix(1.00, 0.00, -0.00, -1.00, 249.6, 218.1)">e</text><text xml:space="preserve" font-family="GillSans,Gill Sans" font-size="30.0" fill="#000000" transform="matrix(1.00, 0.00, -0.00, -1.00, 264.0, 218.1)"> </text><text xml:space="preserve" font-family="GillSans,Gill Sans" font-size="30.0" fill="#000000" transform="matrix(1.00, 0.00, -0.00, -1.00, 272.3, 218.1)">s</text><text xml:space="preserve" font-family="GillSans,Gill Sans" font-size="30.0" fill="#000000" transform="matrix(1.00, 0.00, -0.00, -1.00, 283.9, 218.1)">h</text><text xml:space="preserve" font-family="GillSans,Gill Sans" font-size="30.0" fill="#000000" transform="matrix(1.00, 0.00, -0.00, -1.00, 298.9, 218.1)">i</text><text xml:space="preserve" font-family="GillSans,Gill Sans" font-size="30.0" fill="#000000" transform="matrix(1.00, 0.00, -0.00, -1.00, 305.4, 218.1)">f</text><text xml:space="preserve" font-family="GillSans,Gill Sans" font-size="30.0" fill="#000000" transform="matrix(1.00, 0.00, -0.00, -1.00, 312.9, 218.1)">t</text><text xml:space="preserve" font-family="GillSans,Gill Sans" font-size="30.0" fill="#000000" transform="matrix(1.00, 0.00, -0.00, -1.00, 322.9, 218.1)"> </text><text xml:space="preserve" font-family="GillSans,Gill Sans" font-size="30.0" fill="#000000" transform="matrix(1.00, 0.00, -0.00, -1.00, 331.3, 218.1)">t</text><text xml:space="preserve" font-family="GillSans,Gill Sans" font-size="30.0" fill="#000000" transform="matrix(1.00, 0.00, -0.00, -1.00, 341.2, 218.1)">o</text><text xml:space="preserve" font-family="GillSans,Gill Sans" font-size="30.0" fill="#000000" transform="matrix(1.00, 0.00, -0.00, -1.00, 357.8, 218.1)"> </text><text xml:space="preserve" font-family="GillSans,Gill Sans" font-size="30.0" fill="#000000" transform="matrix(1.00, 0.00, -0.00, -1.00, 366.1, 218.1)">e</text><text xml:space="preserve" font-family="GillSans,Gill Sans" font-size="30.0" fill="#000000" transform="matrix(1.00, 0.00, -0.00, -1.00, 380.5, 218.1)">a</text><text xml:space="preserve" font-family="GillSans,Gill Sans" font-size="30.0" fill="#000000" transform="matrix(1.00, 0.00, -0.00, -1.00, 393.3, 218.1)">c</text><text xml:space="preserve" font-family="GillSans,Gill Sans" font-size="30.0" fill="#000000" transform="matrix(1.00, 0.00, -0.00, -1.00, 406.4, 218.1)">h</text><text xml:space="preserve" font-family="GillSans,Gill Sans" font-size="30.0" fill="#000000" transform="matrix(1.00, 0.00, -0.00, -1.00, 421.4, 218.1)"> </text><text xml:space="preserve" font-family="GillSans,Gill Sans" font-size="30.0" fill="#000000" transform="matrix(1.00, 0.00, -0.00, -1.00, 149.8, 183.1)">e</text><text xml:space="preserve" font-family="GillSans,Gill Sans" font-size="30.0" fill="#000000" transform="matrix(1.00, 0.00, -0.00, -1.00, 164.2, 183.1)">c</text><text xml:space="preserve" font-family="GillSans,Gill Sans" font-size="30.0" fill="#000000" transform="matrix(1.00, 0.00, -0.00, -1.00, 177.3, 183.1)">o</text><text xml:space="preserve" font-family="GillSans,Gill Sans" font-size="30.0" fill="#000000" transform="matrix(1.00, 0.00, -0.00, -1.00, 193.9, 183.1)">n</text><text xml:space="preserve" font-family="GillSans,Gill Sans" font-size="30.0" fill="#000000" transform="matrix(1.00, 0.00, -0.00, -1.00, 208.9, 183.1)">o</text><text xml:space="preserve" font-family="GillSans,Gill Sans" font-size="30.0" fill="#000000" transform="matrix(1.00, 0.00, -0.00, -1.00, 225.4, 183.1)">m</text><text xml:space="preserve" font-family="GillSans,Gill Sans" font-size="30.0" fill="#000000" transform="matrix(1.00, 0.00, -0.00, -1.00, 248.5, 183.1)">i</text><text xml:space="preserve" font-family="GillSans,Gill Sans" font-size="30.0" fill="#000000" transform="matrix(1.00, 0.00, -0.00, -1.00, 255.1, 183.1)">c</text><text xml:space="preserve" font-family="GillSans,Gill Sans" font-size="30.0" fill="#000000" transform="matrix(1.00, 0.00, -0.00, -1.00, 268.3, 183.1)"> </text><text xml:space="preserve" font-family="GillSans,Gill Sans" font-size="30.0" fill="#000000" transform="matrix(1.00, 0.00, -0.00, -1.00, 276.6, 183.1)">f</text><text xml:space="preserve" font-family="GillSans,Gill Sans" font-size="30.0" fill="#000000" transform="matrix(1.00, 0.00, -0.00, -1.00, 283.8, 183.1)">e</text><text xml:space="preserve" font-family="GillSans,Gill Sans" font-size="30.0" fill="#000000" transform="matrix(1.00, 0.00, -0.00, -1.00, 298.2, 183.1)">a</text><text xml:space="preserve" font-family="GillSans,Gill Sans" font-size="30.0" fill="#000000" transform="matrix(1.00, 0.00, -0.00, -1.00, 311.0, 183.1)">t</text><text xml:space="preserve" font-family="GillSans,Gill Sans" font-size="30.0" fill="#000000" transform="matrix(1.00, 0.00, -0.00, -1.00, 321.0, 183.1)">u</text><text xml:space="preserve" font-family="GillSans,Gill Sans" font-size="30.0" fill="#000000" transform="matrix(1.00, 0.00, -0.00, -1.00, 336.0, 183.1)">r</text><text xml:space="preserve" font-family="GillSans,Gill Sans" font-size="30.0" fill="#000000" transform="matrix(1.00, 0.00, -0.00, -1.00, 347.2, 183.1)">e</text><text xml:space="preserve" font-family="GillSans,Gill Sans" font-size="36.0" fill="#000000" transform="matrix(1.00, 0.00, -0.00, -1.00, 104.8, 135.5)">•</text><text xml:space="preserve" font-family="GillSans,Gill Sans" font-size="30.0" fill="#000000" transform="matrix(1.00, 0.00, -0.00, -1.00, 149.8, 137.1)">I</text><text xml:space="preserve" font-family="GillSans,Gill Sans" font-size="30.0" fill="#000000" transform="matrix(1.00, 0.00, -0.00, -1.00, 157.3, 137.1)">n</text><text xml:space="preserve" font-family="GillSans,Gill Sans" font-size="30.0" fill="#000000" transform="matrix(1.00, 0.00, -0.00, -1.00, 172.3, 137.1)">p</text><text xml:space="preserve" font-family="GillSans,Gill Sans" font-size="30.0" fill="#000000" transform="matrix(1.00, 0.00, -0.00, -1.00, 187.3, 137.1)">u</text><text xml:space="preserve" font-family="GillSans,Gill Sans" font-size="30.0" fill="#000000" transform="matrix(1.00, 0.00, -0.00, -1.00, 202.3, 137.1)">t</text><text xml:space="preserve" font-family="GillSans,Gill Sans" font-size="30.0" fill="#000000" transform="matrix(1.00, 0.00, -0.00, -1.00, 212.3, 137.1)"> </text><text xml:space="preserve" font-family="GillSans,Gill Sans" font-size="30.0" fill="#000000" transform="matrix(1.00, 0.00, -0.00, -1.00, 220.6, 137.1)">t</text><text xml:space="preserve" font-family="GillSans,Gill Sans" font-size="30.0" fill="#000000" transform="matrix(1.00, 0.00, -0.00, -1.00, 230.6, 137.1)">i</text><text xml:space="preserve" font-family="GillSans,Gill Sans" font-size="30.0" fill="#000000" transform="matrix(1.00, 0.00, -0.00, -1.00, 237.2, 137.1)">m</text><text xml:space="preserve" font-family="GillSans,Gill Sans" font-size="30.0" fill="#000000" transform="matrix(1.00, 0.00, -0.00, -1.00, 260.3, 137.1)">e</text><text xml:space="preserve" font-family="GillSans,Gill Sans" font-size="30.0" fill="#000000" transform="matrix(1.00, 0.00, -0.00, -1.00, 274.7, 137.1)">-</text><text xml:space="preserve" font-family="GillSans,Gill Sans" font-size="30.0" fill="#000000" transform="matrix(1.00, 0.00, -0.00, -1.00, 284.4, 137.1)">s</text><text xml:space="preserve" font-family="GillSans,Gill Sans" font-size="30.0" fill="#000000" transform="matrix(1.00, 0.00, -0.00, -1.00, 295.9, 137.1)">h</text><text xml:space="preserve" font-family="GillSans,Gill Sans" font-size="30.0" fill="#000000" transform="matrix(1.00, 0.00, -0.00, -1.00, 310.9, 137.1)">i</text><text xml:space="preserve" font-family="GillSans,Gill Sans" font-size="30.0" fill="#000000" transform="matrix(1.00, 0.00, -0.00, -1.00, 317.5, 137.1)">f</text><text xml:space="preserve" font-family="GillSans,Gill Sans" font-size="30.0" fill="#000000" transform="matrix(1.00, 0.00, -0.00, -1.00, 325.0, 137.1)">t</text><text xml:space="preserve" font-family="GillSans,Gill Sans" font-size="30.0" fill="#000000" transform="matrix(1.00, 0.00, -0.00, -1.00, 335.0, 137.1)">e</text><text xml:space="preserve" font-family="GillSans,Gill Sans" font-size="30.0" fill="#000000" transform="matrix(1.00, 0.00, -0.00, -1.00, 349.4, 137.1)">d</text><text xml:space="preserve" font-family="GillSans,Gill Sans" font-size="30.0" fill="#000000" transform="matrix(1.00, 0.00, -0.00, -1.00, 364.7, 137.1)"> </text><text xml:space="preserve" font-family="GillSans,Gill Sans" font-size="30.0" fill="#000000" transform="matrix(1.00, 0.00, -0.00, -1.00, 373.0, 137.1)">f</text><text xml:space="preserve" font-family="GillSans,Gill Sans" font-size="30.0" fill="#000000" transform="matrix(1.00, 0.00, -0.00, -1.00, 380.2, 137.1)">e</text><text xml:space="preserve" font-family="GillSans,Gill Sans" font-size="30.0" fill="#000000" transform="matrix(1.00, 0.00, -0.00, -1.00, 394.6, 137.1)">a</text><text xml:space="preserve" font-family="GillSans,Gill Sans" font-size="30.0" fill="#000000" transform="matrix(1.00, 0.00, -0.00, -1.00, 407.4, 137.1)">t</text><text xml:space="preserve" font-family="GillSans,Gill Sans" font-size="30.0" fill="#000000" transform="matrix(1.00, 0.00, -0.00, -1.00, 417.4, 137.1)">u</text><text xml:space="preserve" font-family="GillSans,Gill Sans" font-size="30.0" fill="#000000" transform="matrix(1.00, 0.00, -0.00, -1.00, 432.4, 137.1)">r</text><text xml:space="preserve" font-family="GillSans,Gill Sans" font-size="30.0" fill="#000000" transform="matrix(1.00, 0.00, -0.00, -1.00, 443.6, 137.1)">e</text><text xml:space="preserve" font-family="GillSans,Gill Sans" font-size="30.0" fill="#000000" transform="matrix(1.00, 0.00, -0.00, -1.00, 458.0, 137.1)">s</text><text xml:space="preserve" font-family="GillSans,Gill Sans" font-size="30.0" fill="#000000" transform="matrix(1.00, 0.00, -0.00, -1.00, 469.5, 137.1)"> </text><text xml:space="preserve" font-family="GillSans,Gill Sans" font-size="30.0" fill="#000000" transform="matrix(1.00, 0.00, -0.00, -1.00, 477.9, 137.1)">t</text><text xml:space="preserve" font-family="GillSans,Gill Sans" font-size="30.0" fill="#000000" transform="matrix(1.00, 0.00, -0.00, -1.00, 487.9, 137.1)">o</text><text xml:space="preserve" font-family="GillSans,Gill Sans" font-size="30.0" fill="#000000" transform="matrix(1.00, 0.00, -0.00, -1.00, 504.4, 137.1)"> </text><text xml:space="preserve" font-family="GillSans,Gill Sans" font-size="30.0" fill="#000000" transform="matrix(1.00, 0.00, -0.00, -1.00, 149.8, 102.1)">g</text><text xml:space="preserve" font-family="GillSans,Gill Sans" font-size="30.0" fill="#000000" transform="matrix(1.00, 0.00, -0.00, -1.00, 162.6, 102.1)">r</text><text xml:space="preserve" font-family="GillSans,Gill Sans" font-size="30.0" fill="#000000" transform="matrix(1.00, 0.00, -0.00, -1.00, 174.5, 102.1)">a</text><text xml:space="preserve" font-family="GillSans,Gill Sans" font-size="30.0" fill="#000000" transform="matrix(1.00, 0.00, -0.00, -1.00, 187.3, 102.1)">d</text><text xml:space="preserve" font-family="GillSans,Gill Sans" font-size="30.0" fill="#000000" transform="matrix(1.00, 0.00, -0.00, -1.00, 202.6, 102.1)">i</text><text xml:space="preserve" font-family="GillSans,Gill Sans" font-size="30.0" fill="#000000" transform="matrix(1.00, 0.00, -0.00, -1.00, 209.1, 102.1)">e</text><text xml:space="preserve" font-family="GillSans,Gill Sans" font-size="30.0" fill="#000000" transform="matrix(1.00, 0.00, -0.00, -1.00, 223.5, 102.1)">n</text><text xml:space="preserve" font-family="GillSans,Gill Sans" font-size="30.0" fill="#000000" transform="matrix(1.00, 0.00, -0.00, -1.00, 238.5, 102.1)">t</text><text xml:space="preserve" font-family="GillSans,Gill Sans" font-size="30.0" fill="#000000" transform="matrix(1.00, 0.00, -0.00, -1.00, 248.5, 102.1)"> </text><text xml:space="preserve" font-family="GillSans,Gill Sans" font-size="30.0" fill="#000000" transform="matrix(1.00, 0.00, -0.00, -1.00, 256.8, 102.1)">b</text><text xml:space="preserve" font-family="GillSans,Gill Sans" font-size="30.0" fill="#000000" transform="matrix(1.00, 0.00, -0.00, -1.00, 271.8, 102.1)">o</text><text xml:space="preserve" font-family="GillSans,Gill Sans" font-size="30.0" fill="#000000" transform="matrix(1.00, 0.00, -0.00, -1.00, 288.4, 102.1)">o</text><text xml:space="preserve" font-family="GillSans,Gill Sans" font-size="30.0" fill="#000000" transform="matrix(1.00, 0.00, -0.00, -1.00, 304.9, 102.1)">s</text><text xml:space="preserve" font-family="GillSans,Gill Sans" font-size="30.0" fill="#000000" transform="matrix(1.00, 0.00, -0.00, -1.00, 316.5, 102.1)">t</text><text xml:space="preserve" font-family="GillSans,Gill Sans" font-size="30.0" fill="#000000" transform="matrix(1.00, 0.00, -0.00, -1.00, 326.5, 102.1)">e</text><text xml:space="preserve" font-family="GillSans,Gill Sans" font-size="30.0" fill="#000000" transform="matrix(1.00, 0.00, -0.00, -1.00, 340.8, 102.1)">d</text><text xml:space="preserve" font-family="GillSans,Gill Sans" font-size="30.0" fill="#000000" transform="matrix(1.00, 0.00, -0.00, -1.00, 356.1, 102.1)"> </text><text xml:space="preserve" font-family="GillSans,Gill Sans" font-size="30.0" fill="#000000" transform="matrix(1.00, 0.00, -0.00, -1.00, 364.4, 102.1)">r</text><text xml:space="preserve" font-family="GillSans,Gill Sans" font-size="30.0" fill="#000000" transform="matrix(1.00, 0.00, -0.00, -1.00, 375.7, 102.1)">e</text><text xml:space="preserve" font-family="GillSans,Gill Sans" font-size="30.0" fill="#000000" transform="matrix(1.00, 0.00, -0.00, -1.00, 390.1, 102.1)">g</text><text xml:space="preserve" font-family="GillSans,Gill Sans" font-size="30.0" fill="#000000" transform="matrix(1.00, 0.00, -0.00, -1.00, 402.9, 102.1)">r</text><text xml:space="preserve" font-family="GillSans,Gill Sans" font-size="30.0" fill="#000000" transform="matrix(1.00, 0.00, -0.00, -1.00, 414.2, 102.1)">e</text><text xml:space="preserve" font-family="GillSans,Gill Sans" font-size="30.0" fill="#000000" transform="matrix(1.00, 0.00, -0.00, -1.00, 428.5, 102.1)">s</text><text xml:space="preserve" font-family="GillSans,Gill Sans" font-size="30.0" fill="#000000" transform="matrix(1.00, 0.00, -0.00, -1.00, 440.1, 102.1)">s</text><text xml:space="preserve" font-family="GillSans,Gill Sans" font-size="30.0" fill="#000000" transform="matrix(1.00, 0.00, -0.00, -1.00, 451.6, 102.1)">i</text><text xml:space="preserve" font-family="GillSans,Gill Sans" font-size="30.0" fill="#000000" transform="matrix(1.00, 0.00, -0.00, -1.00, 458.2, 102.1)">o</text><text xml:space="preserve" font-family="GillSans,Gill Sans" font-size="30.0" fill="#000000" transform="matrix(1.00, 0.00, -0.00, -1.00, 474.7, 102.1)">n</text><text xml:space="preserve" font-family="GillSans,Gill Sans" font-size="30.0" fill="#000000" transform="matrix(1.00, 0.00, -0.00, -1.00, 489.7, 102.1)"> </text><text xml:space="preserve" font-family="GillSans,Gill Sans" font-size="30.0" fill="#000000" transform="matrix(1.00, 0.00, -0.00, -1.00, 149.8, 67.1)">t</text><text xml:space="preserve" font-family="GillSans,Gill Sans" font-size="30.0" fill="#000000" transform="matrix(1.00, 0.00, -0.00, -1.00, 159.8, 67.1)">r</text><text xml:space="preserve" font-family="GillSans,Gill Sans" font-size="30.0" fill="#000000" transform="matrix(1.00, 0.00, -0.00, -1.00, 171.1, 67.1)">e</text><text xml:space="preserve" font-family="GillSans,Gill Sans" font-size="30.0" fill="#000000" transform="matrix(1.00, 0.00, -0.00, -1.00, 185.4, 67.1)">e</text><text xml:space="preserve" font-family="GillSans,Gill Sans" font-size="30.0" fill="#000000" transform="matrix(1.00, 0.00, -0.00, -1.00, 199.8, 67.1)">s</text><text xml:space="preserve" font-family="GillSans,Gill Sans" font-size="30.0" fill="#000000" transform="matrix(1.00, 0.00, -0.00, -1.00, 211.4, 67.1)"> </text></g></g></g></svg>