<?xml version="1.0" encoding="UTF-8" standalone="no"?><svg xmlns="http://www.w3.org/2000/svg" xmlns:xlink="http://www.w3.org/1999/xlink" clip-rule="evenodd" stroke-miterlimit="10" viewBox="0 0 1024 768"><desc>SVG generated by Keynote</desc><defs></defs><g transform="matrix(1.00, 0.00, -0.00, -1.00, 0.0, 768.0)"><path d="M 0.0 768.0 L 1024.0 768.0 L 1024.0 0.0 L 0.0 0.0 Z M 0.0 768.0 " fill="#FEFFFF"></path><image xlink:href="../../79CEC0ED-B611-4695-B06F-D725DFC4C3AD/assets/8F475106A2362E144E9438ED9453580C.jpeg" width="1153.00" height="768.00" transform="matrix(1.00, 0.00, -0.00, -1.00, -121.0, 768.0)"></image><path d="M 100.5 747.5 L 924.5 747.5 L 924.5 619.5 L 100.5 619.5 Z M 100.0 748.0 " fill="#FFFFFF"></path><path d="M 0.5 0.5 L 824.5 0.5 L 824.5 128.5 L 0.5 128.5 Z M 0.0 0.0 " fill="none" stroke="#000000" stroke-width="3.00" transform="matrix(1.00, 0.00, 0.00, -1.00, 100.0, 748.0)"></path><g><clipPath id="clip0x7ffbf012f3e0"><path d="M 87.6 622.0 L 936.4 622.0 L 936.4 746.0 L 87.6 746.0 Z M 87.6 622.0 "></path></clipPath><g clip-path="url(#clip0x7ffbf012f3e0)"><text xml:space="preserve" font-family="GillSans,Gill Sans" font-size="64.0" fill="#000000" transform="matrix(1.00, 0.00, -0.00, -1.00, 272.6, 661.8)">S</text><text xml:space="preserve" font-family="GillSans,Gill Sans" font-size="64.0" fill="#000000" transform="matrix(1.00, 0.00, -0.00, -1.00, 302.0, 661.8)">e</text><text xml:space="preserve" font-family="GillSans,Gill Sans" font-size="64.0" fill="#000000" transform="matrix(1.00, 0.00, -0.00, -1.00, 332.6, 661.8)">n</text><text xml:space="preserve" font-family="GillSans,Gill Sans" font-size="64.0" fill="#000000" transform="matrix(1.00, 0.00, -0.00, -1.00, 364.6, 661.8)">t</text><text xml:space="preserve" font-family="GillSans,Gill Sans" font-size="64.0" fill="#000000" transform="matrix(1.00, 0.00, -0.00, -1.00, 385.9, 661.8)">i</text><text xml:space="preserve" font-family="GillSans,Gill Sans" font-size="64.0" fill="#000000" transform="matrix(1.00, 0.00, -0.00, -1.00, 400.0, 661.8)">m</text><text xml:space="preserve" font-family="GillSans,Gill Sans" font-size="64.0" fill="#000000" transform="matrix(1.00, 0.00, -0.00, -1.00, 449.3, 661.8)">e</text><text xml:space="preserve" font-family="GillSans,Gill Sans" font-size="64.0" fill="#000000" transform="matrix(1.00, 0.00, -0.00, -1.00, 480.0, 661.8)">n</text><text xml:space="preserve" font-family="GillSans,Gill Sans" font-size="64.0" fill="#000000" transform="matrix(1.00, 0.00, -0.00, -1.00, 512.0, 661.8)">t</text><text xml:space="preserve" font-family="GillSans,Gill Sans" font-size="64.0" fill="#000000" transform="matrix(1.00, 0.00, -0.00, -1.00, 533.3, 661.8)"> </text><text xml:space="preserve" font-family="GillSans,Gill Sans" font-size="64.0" fill="#000000" transform="matrix(1.00, 0.00, -0.00, -1.00, 544.6, 661.8)">A</text><text xml:space="preserve" font-family="GillSans,Gill Sans" font-size="64.0" fill="#000000" transform="matrix(1.00, 0.00, -0.00, -1.00, 587.3, 661.8)">n</text><text xml:space="preserve" font-family="GillSans,Gill Sans" font-size="64.0" fill="#000000" transform="matrix(1.00, 0.00, -0.00, -1.00, 619.3, 661.8)">a</text><text xml:space="preserve" font-family="GillSans,Gill Sans" font-size="64.0" fill="#000000" transform="matrix(1.00, 0.00, -0.00, -1.00, 646.6, 661.8)">l</text><text xml:space="preserve" font-family="GillSans,Gill Sans" font-size="64.0" fill="#000000" transform="matrix(1.00, 0.00, -0.00, -1.00, 660.1, 661.8)">y</text><text xml:space="preserve" font-family="GillSans,Gill Sans" font-size="64.0" fill="#000000" transform="matrix(1.00, 0.00, -0.00, -1.00, 688.1, 661.8)">s</text><text xml:space="preserve" font-family="GillSans,Gill Sans" font-size="64.0" fill="#000000" transform="matrix(1.00, 0.00, -0.00, -1.00, 712.7, 661.8)">i</text><text xml:space="preserve" font-family="GillSans,Gill Sans" font-size="64.0" fill="#000000" transform="matrix(1.00, 0.00, -0.00, -1.00, 726.7, 661.8)">s</text></g></g><path d="M 100.5 550.5 L 924.5 550.5 L 924.5 277.5 L 100.5 277.5 Z M 100.0 551.0 " fill="#FFFFFF"></path><path d="M 0.5 0.5 L 824.5 0.5 L 824.5 273.5 L 0.5 273.5 Z M 0.0 0.0 " fill="none" stroke="#000000" stroke-width="3.00" transform="matrix(1.00, 0.00, 0.00, -1.00, 100.0, 551.0)"></path><g><clipPath id="clip0x7ffbf0205a30"><path d="M 97.4 279.2 L 926.6 279.2 L 926.6 549.0 L 97.4 549.0 Z M 97.4 279.2 "></path></clipPath><g clip-path="url(#clip0x7ffbf0205a30)"><text xml:space="preserve" font-family="GillSans,Gill Sans" font-size="36.0" fill="#000000" transform="matrix(1.00, 0.00, -0.00, -1.00, 131.0, 482.3)">•</text><text xml:space="preserve" font-family="GillSans,Gill Sans" font-size="30.0" fill="#000000" transform="matrix(1.00, 0.00, -0.00, -1.00, 176.0, 483.9)">1</text><text xml:space="preserve" font-family="GillSans,Gill Sans" font-size="30.0" fill="#000000" transform="matrix(1.00, 0.00, -0.00, -1.00, 191.0, 483.9)">7</text><text xml:space="preserve" font-family="GillSans,Gill Sans" font-size="30.0" fill="#000000" transform="matrix(1.00, 0.00, -0.00, -1.00, 206.0, 483.9)"> </text><text xml:space="preserve" font-family="GillSans,Gill Sans" font-size="30.0" fill="#000000" transform="matrix(1.00, 0.00, -0.00, -1.00, 214.3, 483.9)">0</text><text xml:space="preserve" font-family="GillSans,Gill Sans" font-size="30.0" fill="#000000" transform="matrix(1.00, 0.00, -0.00, -1.00, 229.3, 483.9)">0</text><text xml:space="preserve" font-family="GillSans,Gill Sans" font-size="30.0" fill="#000000" transform="matrix(1.00, 0.00, -0.00, -1.00, 244.3, 483.9)">0</text><text xml:space="preserve" font-family="GillSans,Gill Sans" font-size="30.0" fill="#000000" transform="matrix(1.00, 0.00, -0.00, -1.00, 259.3, 483.9)"> </text><text xml:space="preserve" font-family="GillSans,Gill Sans" font-size="30.0" fill="#000000" transform="matrix(1.00, 0.00, -0.00, -1.00, 267.7, 483.9)">N</text><text xml:space="preserve" font-family="GillSans,Gill Sans" font-size="30.0" fill="#000000" transform="matrix(1.00, 0.00, -0.00, -1.00, 291.1, 483.9)">Y</text><text xml:space="preserve" font-family="GillSans,Gill Sans" font-size="30.0" fill="#000000" transform="matrix(1.00, 0.00, -0.00, -1.00, 309.2, 483.9)">T</text><text xml:space="preserve" font-family="GillSans,Gill Sans" font-size="30.0" fill="#000000" transform="matrix(1.00, 0.00, -0.00, -1.00, 327.3, 483.9)">i</text><text xml:space="preserve" font-family="GillSans,Gill Sans" font-size="30.0" fill="#000000" transform="matrix(1.00, 0.00, -0.00, -1.00, 333.9, 483.9)">m</text><text xml:space="preserve" font-family="GillSans,Gill Sans" font-size="30.0" fill="#000000" transform="matrix(1.00, 0.00, -0.00, -1.00, 357.0, 483.9)">e</text><text xml:space="preserve" font-family="GillSans,Gill Sans" font-size="30.0" fill="#000000" transform="matrix(1.00, 0.00, -0.00, -1.00, 371.4, 483.9)">s</text><text xml:space="preserve" font-family="GillSans,Gill Sans" font-size="30.0" fill="#000000" transform="matrix(1.00, 0.00, -0.00, -1.00, 382.9, 483.9)"> </text><text xml:space="preserve" font-family="GillSans,Gill Sans" font-size="30.0" fill="#000000" transform="matrix(1.00, 0.00, -0.00, -1.00, 391.3, 483.9)">n</text><text xml:space="preserve" font-family="GillSans,Gill Sans" font-size="30.0" fill="#000000" transform="matrix(1.00, 0.00, -0.00, -1.00, 406.3, 483.9)">e</text><text xml:space="preserve" font-family="GillSans,Gill Sans" font-size="30.0" fill="#000000" transform="matrix(1.00, 0.00, -0.00, -1.00, 420.2, 483.9)">w</text><text xml:space="preserve" font-family="GillSans,Gill Sans" font-size="30.0" fill="#000000" transform="matrix(1.00, 0.00, -0.00, -1.00, 441.8, 483.9)">s</text><text xml:space="preserve" font-family="GillSans,Gill Sans" font-size="30.0" fill="#000000" transform="matrix(1.00, 0.00, -0.00, -1.00, 453.3, 483.9)"> </text><text xml:space="preserve" font-family="GillSans,Gill Sans" font-size="30.0" fill="#000000" transform="matrix(1.00, 0.00, -0.00, -1.00, 461.6, 483.9)">a</text><text xml:space="preserve" font-family="GillSans,Gill Sans" font-size="30.0" fill="#000000" transform="matrix(1.00, 0.00, -0.00, -1.00, 474.4, 483.9)">r</text><text xml:space="preserve" font-family="GillSans,Gill Sans" font-size="30.0" fill="#000000" transform="matrix(1.00, 0.00, -0.00, -1.00, 486.9, 483.9)">t</text><text xml:space="preserve" font-family="GillSans,Gill Sans" font-size="30.0" fill="#000000" transform="matrix(1.00, 0.00, -0.00, -1.00, 496.9, 483.9)">i</text><text xml:space="preserve" font-family="GillSans,Gill Sans" font-size="30.0" fill="#000000" transform="matrix(1.00, 0.00, -0.00, -1.00, 503.5, 483.9)">c</text><text xml:space="preserve" font-family="GillSans,Gill Sans" font-size="30.0" fill="#000000" transform="matrix(1.00, 0.00, -0.00, -1.00, 516.6, 483.9)">l</text><text xml:space="preserve" font-family="GillSans,Gill Sans" font-size="30.0" fill="#000000" transform="matrix(1.00, 0.00, -0.00, -1.00, 523.2, 483.9)">e</text><text xml:space="preserve" font-family="GillSans,Gill Sans" font-size="30.0" fill="#000000" transform="matrix(1.00, 0.00, -0.00, -1.00, 537.6, 483.9)">s</text><text xml:space="preserve" font-family="GillSans,Gill Sans" font-size="30.0" fill="#000000" transform="matrix(1.00, 0.00, -0.00, -1.00, 549.1, 483.9)"> </text><text xml:space="preserve" font-family="GillSans,Gill Sans" font-size="30.0" fill="#000000" transform="matrix(1.00, 0.00, -0.00, -1.00, 557.4, 483.9)">o</text><text xml:space="preserve" font-family="GillSans,Gill Sans" font-size="30.0" fill="#000000" transform="matrix(1.00, 0.00, -0.00, -1.00, 574.0, 483.9)">n</text><text xml:space="preserve" font-family="GillSans,Gill Sans" font-size="30.0" fill="#000000" transform="matrix(1.00, 0.00, -0.00, -1.00, 589.0, 483.9)"> </text><text xml:space="preserve" font-family="GillSans,Gill Sans" font-size="30.0" fill="#000000" transform="matrix(1.00, 0.00, -0.00, -1.00, 597.3, 483.9)">t</text><text xml:space="preserve" font-family="GillSans,Gill Sans" font-size="30.0" fill="#000000" transform="matrix(1.00, 0.00, -0.00, -1.00, 607.3, 483.9)">h</text><text xml:space="preserve" font-family="GillSans,Gill Sans" font-size="30.0" fill="#000000" transform="matrix(1.00, 0.00, -0.00, -1.00, 622.3, 483.9)">e</text><text xml:space="preserve" font-family="GillSans,Gill Sans" font-size="30.0" fill="#000000" transform="matrix(1.00, 0.00, -0.00, -1.00, 636.7, 483.9)"> </text><text xml:space="preserve" font-family="GillSans,Gill Sans" font-size="30.0" fill="#000000" transform="matrix(1.00, 0.00, -0.00, -1.00, 645.0, 483.9)">U</text><text xml:space="preserve" font-family="GillSans,Gill Sans" font-size="30.0" fill="#000000" transform="matrix(1.00, 0.00, -0.00, -1.00, 666.2, 483.9)">S</text><text xml:space="preserve" font-family="GillSans,Gill Sans" font-size="30.0" fill="#000000" transform="matrix(1.00, 0.00, -0.00, -1.00, 680.0, 483.9)"> </text><text xml:space="preserve" font-family="GillSans,Gill Sans" font-size="30.0" fill="#000000" transform="matrix(1.00, 0.00, -0.00, -1.00, 688.3, 483.9)">E</text><text xml:space="preserve" font-family="GillSans,Gill Sans" font-size="30.0" fill="#000000" transform="matrix(1.00, 0.00, -0.00, -1.00, 703.3, 483.9)">c</text><text xml:space="preserve" font-family="GillSans,Gill Sans" font-size="30.0" fill="#000000" transform="matrix(1.00, 0.00, -0.00, -1.00, 716.5, 483.9)">o</text><text xml:space="preserve" font-family="GillSans,Gill Sans" font-size="30.0" fill="#000000" transform="matrix(1.00, 0.00, -0.00, -1.00, 733.0, 483.9)">n</text><text xml:space="preserve" font-family="GillSans,Gill Sans" font-size="30.0" fill="#000000" transform="matrix(1.00, 0.00, -0.00, -1.00, 748.0, 483.9)">o</text><text xml:space="preserve" font-family="GillSans,Gill Sans" font-size="30.0" fill="#000000" transform="matrix(1.00, 0.00, -0.00, -1.00, 764.5, 483.9)">m</text><text xml:space="preserve" font-family="GillSans,Gill Sans" font-size="30.0" fill="#000000" transform="matrix(1.00, 0.00, -0.00, -1.00, 786.6, 483.9)">y</text><text xml:space="preserve" font-family="GillSans,Gill Sans" font-size="36.0" fill="#000000" transform="matrix(1.00, 0.00, -0.00, -1.00, 131.0, 436.3)">•</text><text xml:space="preserve" font-family="GillSans,Gill Sans" font-size="30.0" fill="#000000" transform="matrix(1.00, 0.00, -0.00, -1.00, 176.0, 437.9)">S</text><text xml:space="preserve" font-family="GillSans,Gill Sans" font-size="30.0" fill="#000000" transform="matrix(1.00, 0.00, -0.00, -1.00, 189.7, 437.9)">e</text><text xml:space="preserve" font-family="GillSans,Gill Sans" font-size="30.0" fill="#000000" transform="matrix(1.00, 0.00, -0.00, -1.00, 204.1, 437.9)">e</text><text xml:space="preserve" font-family="GillSans,Gill Sans" font-size="30.0" fill="#000000" transform="matrix(1.00, 0.00, -0.00, -1.00, 218.5, 437.9)">d</text><text xml:space="preserve" font-family="GillSans,Gill Sans" font-size="30.0" fill="#000000" transform="matrix(1.00, 0.00, -0.00, -1.00, 233.8, 437.9)"> </text><text xml:space="preserve" font-family="GillSans,Gill Sans" font-size="30.0" fill="#000000" transform="matrix(1.00, 0.00, -0.00, -1.00, 242.1, 437.9)">w</text><text xml:space="preserve" font-family="GillSans,Gill Sans" font-size="30.0" fill="#000000" transform="matrix(1.00, 0.00, -0.00, -1.00, 263.1, 437.9)">o</text><text xml:space="preserve" font-family="GillSans,Gill Sans" font-size="30.0" fill="#000000" transform="matrix(1.00, 0.00, -0.00, -1.00, 279.6, 437.9)">r</text><text xml:space="preserve" font-family="GillSans,Gill Sans" font-size="30.0" fill="#000000" transform="matrix(1.00, 0.00, -0.00, -1.00, 291.1, 437.9)">d</text><text xml:space="preserve" font-family="GillSans,Gill Sans" font-size="30.0" fill="#000000" transform="matrix(1.00, 0.00, -0.00, -1.00, 306.3, 437.9)"> </text><text xml:space="preserve" font-family="GillSans,Gill Sans" font-size="30.0" fill="#000000" transform="matrix(1.00, 0.00, -0.00, -1.00, 314.7, 437.9)">l</text><text xml:space="preserve" font-family="GillSans,Gill Sans" font-size="30.0" fill="#000000" transform="matrix(1.00, 0.00, -0.00, -1.00, 321.3, 437.9)">i</text><text xml:space="preserve" font-family="GillSans,Gill Sans" font-size="30.0" fill="#000000" transform="matrix(1.00, 0.00, -0.00, -1.00, 327.8, 437.9)">s</text><text xml:space="preserve" font-family="GillSans,Gill Sans" font-size="30.0" fill="#000000" transform="matrix(1.00, 0.00, -0.00, -1.00, 339.4, 437.9)">t</text><text xml:space="preserve" font-family="GillSans,Gill Sans" font-size="30.0" fill="#000000" transform="matrix(1.00, 0.00, -0.00, -1.00, 349.4, 437.9)">s</text><text xml:space="preserve" font-family="GillSans,Gill Sans" font-size="30.0" fill="#000000" transform="matrix(1.00, 0.00, -0.00, -1.00, 360.9, 437.9)"> </text><text xml:space="preserve" font-family="GillSans,Gill Sans" font-size="30.0" fill="#000000" transform="matrix(1.00, 0.00, -0.00, -1.00, 369.2, 437.9)">m</text><text xml:space="preserve" font-family="GillSans,Gill Sans" font-size="30.0" fill="#000000" transform="matrix(1.00, 0.00, -0.00, -1.00, 392.4, 437.9)">a</text><text xml:space="preserve" font-family="GillSans,Gill Sans" font-size="30.0" fill="#000000" transform="matrix(1.00, 0.00, -0.00, -1.00, 405.2, 437.9)">n</text><text xml:space="preserve" font-family="GillSans,Gill Sans" font-size="30.0" fill="#000000" transform="matrix(1.00, 0.00, -0.00, -1.00, 419.9, 437.9)">u</text><text xml:space="preserve" font-family="GillSans,Gill Sans" font-size="30.0" fill="#000000" transform="matrix(1.00, 0.00, -0.00, -1.00, 434.9, 437.9)">a</text><text xml:space="preserve" font-family="GillSans,Gill Sans" font-size="30.0" fill="#000000" transform="matrix(1.00, 0.00, -0.00, -1.00, 447.7, 437.9)">l</text><text xml:space="preserve" font-family="GillSans,Gill Sans" font-size="30.0" fill="#000000" transform="matrix(1.00, 0.00, -0.00, -1.00, 454.2, 437.9)">l</text><text xml:space="preserve" font-family="GillSans,Gill Sans" font-size="30.0" fill="#000000" transform="matrix(1.00, 0.00, -0.00, -1.00, 460.5, 437.9)">y</text><text xml:space="preserve" font-family="GillSans,Gill Sans" font-size="30.0" fill="#000000" transform="matrix(1.00, 0.00, -0.00, -1.00, 473.7, 437.9)"> </text><text xml:space="preserve" font-family="GillSans,Gill Sans" font-size="30.0" fill="#000000" transform="matrix(1.00, 0.00, -0.00, -1.00, 482.0, 437.9)">c</text><text xml:space="preserve" font-family="GillSans,Gill Sans" font-size="30.0" fill="#000000" transform="matrix(1.00, 0.00, -0.00, -1.00, 495.1, 437.9)">u</text><text xml:space="preserve" font-family="GillSans,Gill Sans" font-size="30.0" fill="#000000" transform="matrix(1.00, 0.00, -0.00, -1.00, 510.1, 437.9)">r</text><text xml:space="preserve" font-family="GillSans,Gill Sans" font-size="30.0" fill="#000000" transform="matrix(1.00, 0.00, -0.00, -1.00, 522.0, 437.9)">a</text><text xml:space="preserve" font-family="GillSans,Gill Sans" font-size="30.0" fill="#000000" transform="matrix(1.00, 0.00, -0.00, -1.00, 534.8, 437.9)">t</text><text xml:space="preserve" font-family="GillSans,Gill Sans" font-size="30.0" fill="#000000" transform="matrix(1.00, 0.00, -0.00, -1.00, 544.8, 437.9)">e</text><text xml:space="preserve" font-family="GillSans,Gill Sans" font-size="30.0" fill="#000000" transform="matrix(1.00, 0.00, -0.00, -1.00, 559.2, 437.9)">d</text><text xml:space="preserve" font-family="GillSans,Gill Sans" font-size="30.0" fill="#000000" transform="matrix(1.00, 0.00, -0.00, -1.00, 574.5, 437.9)"> </text><text xml:space="preserve" font-family="GillSans,Gill Sans" font-size="30.0" fill="#000000" transform="matrix(1.00, 0.00, -0.00, -1.00, 582.8, 437.9)">f</text><text xml:space="preserve" font-family="GillSans,Gill Sans" font-size="30.0" fill="#000000" transform="matrix(1.00, 0.00, -0.00, -1.00, 590.3, 437.9)">r</text><text xml:space="preserve" font-family="GillSans,Gill Sans" font-size="30.0" fill="#000000" transform="matrix(1.00, 0.00, -0.00, -1.00, 601.4, 437.9)">o</text><text xml:space="preserve" font-family="GillSans,Gill Sans" font-size="30.0" fill="#000000" transform="matrix(1.00, 0.00, -0.00, -1.00, 618.0, 437.9)">m</text><text xml:space="preserve" font-family="GillSans,Gill Sans" font-size="30.0" fill="#000000" transform="matrix(1.00, 0.00, -0.00, -1.00, 641.1, 437.9)"> </text><text xml:space="preserve" font-family="GillSans,Gill Sans" font-size="30.0" fill="#000000" transform="matrix(1.00, 0.00, -0.00, -1.00, 649.4, 437.9)">t</text><text xml:space="preserve" font-family="GillSans,Gill Sans" font-size="30.0" fill="#000000" transform="matrix(1.00, 0.00, -0.00, -1.00, 659.4, 437.9)">h</text><text xml:space="preserve" font-family="GillSans,Gill Sans" font-size="30.0" fill="#000000" transform="matrix(1.00, 0.00, -0.00, -1.00, 674.4, 437.9)">e</text><text xml:space="preserve" font-family="GillSans,Gill Sans" font-size="30.0" fill="#000000" transform="matrix(1.00, 0.00, -0.00, -1.00, 688.8, 437.9)"> </text><text xml:space="preserve" font-family="GillSans,Gill Sans" font-size="30.0" fill="#000000" transform="matrix(1.00, 0.00, -0.00, -1.00, 697.1, 437.9)">m</text><text xml:space="preserve" font-family="GillSans,Gill Sans" font-size="30.0" fill="#000000" transform="matrix(1.00, 0.00, -0.00, -1.00, 720.3, 437.9)">o</text><text xml:space="preserve" font-family="GillSans,Gill Sans" font-size="30.0" fill="#000000" transform="matrix(1.00, 0.00, -0.00, -1.00, 736.8, 437.9)">s</text><text xml:space="preserve" font-family="GillSans,Gill Sans" font-size="30.0" fill="#000000" transform="matrix(1.00, 0.00, -0.00, -1.00, 748.3, 437.9)">t</text><text xml:space="preserve" font-family="GillSans,Gill Sans" font-size="30.0" fill="#000000" transform="matrix(1.00, 0.00, -0.00, -1.00, 758.3, 437.9)"> </text><text xml:space="preserve" font-family="GillSans,Gill Sans" font-size="30.0" fill="#000000" transform="matrix(1.00, 0.00, -0.00, -1.00, 766.7, 437.9)">c</text><text xml:space="preserve" font-family="GillSans,Gill Sans" font-size="30.0" fill="#000000" transform="matrix(1.00, 0.00, -0.00, -1.00, 779.8, 437.9)">o</text><text xml:space="preserve" font-family="GillSans,Gill Sans" font-size="30.0" fill="#000000" transform="matrix(1.00, 0.00, -0.00, -1.00, 796.3, 437.9)">m</text><text xml:space="preserve" font-family="GillSans,Gill Sans" font-size="30.0" fill="#000000" transform="matrix(1.00, 0.00, -0.00, -1.00, 819.5, 437.9)">m</text><text xml:space="preserve" font-family="GillSans,Gill Sans" font-size="30.0" fill="#000000" transform="matrix(1.00, 0.00, -0.00, -1.00, 842.6, 437.9)">o</text><text xml:space="preserve" font-family="GillSans,Gill Sans" font-size="30.0" fill="#000000" transform="matrix(1.00, 0.00, -0.00, -1.00, 859.1, 437.9)">n</text><text xml:space="preserve" font-family="GillSans,Gill Sans" font-size="30.0" fill="#000000" transform="matrix(1.00, 0.00, -0.00, -1.00, 874.1, 437.9)"> </text><text xml:space="preserve" font-family="GillSans,Gill Sans" font-size="30.0" fill="#000000" transform="matrix(1.00, 0.00, -0.00, -1.00, 176.0, 402.9)">v</text><text xml:space="preserve" font-family="GillSans,Gill Sans" font-size="30.0" fill="#000000" transform="matrix(1.00, 0.00, -0.00, -1.00, 188.5, 402.9)">o</text><text xml:space="preserve" font-family="GillSans,Gill Sans" font-size="30.0" fill="#000000" transform="matrix(1.00, 0.00, -0.00, -1.00, 205.1, 402.9)">c</text><text xml:space="preserve" font-family="GillSans,Gill Sans" font-size="30.0" fill="#000000" transform="matrix(1.00, 0.00, -0.00, -1.00, 218.2, 402.9)">a</text><text xml:space="preserve" font-family="GillSans,Gill Sans" font-size="30.0" fill="#000000" transform="matrix(1.00, 0.00, -0.00, -1.00, 231.0, 402.9)">b</text><text xml:space="preserve" font-family="GillSans,Gill Sans" font-size="30.0" fill="#000000" transform="matrix(1.00, 0.00, -0.00, -1.00, 246.0, 402.9)">u</text><text xml:space="preserve" font-family="GillSans,Gill Sans" font-size="30.0" fill="#000000" transform="matrix(1.00, 0.00, -0.00, -1.00, 261.0, 402.9)">l</text><text xml:space="preserve" font-family="GillSans,Gill Sans" font-size="30.0" fill="#000000" transform="matrix(1.00, 0.00, -0.00, -1.00, 267.6, 402.9)">a</text><text xml:space="preserve" font-family="GillSans,Gill Sans" font-size="30.0" fill="#000000" transform="matrix(1.00, 0.00, -0.00, -1.00, 280.4, 402.9)">r</text><text xml:space="preserve" font-family="GillSans,Gill Sans" font-size="30.0" fill="#000000" transform="matrix(1.00, 0.00, -0.00, -1.00, 293.2, 402.9)">y</text><text xml:space="preserve" font-family="GillSans,Gill Sans" font-size="30.0" fill="#000000" transform="matrix(1.00, 0.00, -0.00, -1.00, 306.3, 402.9)"> </text><text xml:space="preserve" font-family="GillSans,Gill Sans" font-size="30.0" fill="#000000" transform="matrix(1.00, 0.00, -0.00, -1.00, 314.6, 402.9)">i</text><text xml:space="preserve" font-family="GillSans,Gill Sans" font-size="30.0" fill="#000000" transform="matrix(1.00, 0.00, -0.00, -1.00, 321.2, 402.9)">n</text><text xml:space="preserve" font-family="GillSans,Gill Sans" font-size="30.0" fill="#000000" transform="matrix(1.00, 0.00, -0.00, -1.00, 336.2, 402.9)"> </text><text xml:space="preserve" font-family="GillSans,Gill Sans" font-size="30.0" fill="#000000" transform="matrix(1.00, 0.00, -0.00, -1.00, 344.6, 402.9)">t</text><text xml:space="preserve" font-family="GillSans,Gill Sans" font-size="30.0" fill="#000000" transform="matrix(1.00, 0.00, -0.00, -1.00, 354.5, 402.9)">h</text><text xml:space="preserve" font-family="GillSans,Gill Sans" font-size="30.0" fill="#000000" transform="matrix(1.00, 0.00, -0.00, -1.00, 369.5, 402.9)">e</text><text xml:space="preserve" font-family="GillSans,Gill Sans" font-size="30.0" fill="#000000" transform="matrix(1.00, 0.00, -0.00, -1.00, 383.9, 402.9)"> </text><text xml:space="preserve" font-family="GillSans,Gill Sans" font-size="30.0" fill="#000000" transform="matrix(1.00, 0.00, -0.00, -1.00, 392.2, 402.9)">a</text><text xml:space="preserve" font-family="GillSans,Gill Sans" font-size="30.0" fill="#000000" transform="matrix(1.00, 0.00, -0.00, -1.00, 405.0, 402.9)">r</text><text xml:space="preserve" font-family="GillSans,Gill Sans" font-size="30.0" fill="#000000" transform="matrix(1.00, 0.00, -0.00, -1.00, 417.5, 402.9)">t</text><text xml:space="preserve" font-family="GillSans,Gill Sans" font-size="30.0" fill="#000000" transform="matrix(1.00, 0.00, -0.00, -1.00, 427.5, 402.9)">i</text><text xml:space="preserve" font-family="GillSans,Gill Sans" font-size="30.0" fill="#000000" transform="matrix(1.00, 0.00, -0.00, -1.00, 434.1, 402.9)">c</text><text xml:space="preserve" font-family="GillSans,Gill Sans" font-size="30.0" fill="#000000" transform="matrix(1.00, 0.00, -0.00, -1.00, 447.2, 402.9)">l</text><text xml:space="preserve" font-family="GillSans,Gill Sans" font-size="30.0" fill="#000000" transform="matrix(1.00, 0.00, -0.00, -1.00, 453.8, 402.9)">e</text><text xml:space="preserve" font-family="GillSans,Gill Sans" font-size="30.0" fill="#000000" transform="matrix(1.00, 0.00, -0.00, -1.00, 468.2, 402.9)">s</text><text xml:space="preserve" font-family="GillSans,Gill Sans" font-size="36.0" fill="#000000" transform="matrix(1.00, 0.00, -0.00, -1.00, 131.0, 355.3)">•</text><text xml:space="preserve" font-family="GillSans,Gill Sans" font-size="30.0" fill="#000000" transform="matrix(1.00, 0.00, -0.00, -1.00, 176.0, 356.9)">S</text><text xml:space="preserve" font-family="GillSans,Gill Sans" font-size="30.0" fill="#000000" transform="matrix(1.00, 0.00, -0.00, -1.00, 189.7, 356.9)">e</text><text xml:space="preserve" font-family="GillSans,Gill Sans" font-size="30.0" fill="#000000" transform="matrix(1.00, 0.00, -0.00, -1.00, 204.1, 356.9)">n</text><text xml:space="preserve" font-family="GillSans,Gill Sans" font-size="30.0" fill="#000000" transform="matrix(1.00, 0.00, -0.00, -1.00, 219.1, 356.9)">t</text><text xml:space="preserve" font-family="GillSans,Gill Sans" font-size="30.0" fill="#000000" transform="matrix(1.00, 0.00, -0.00, -1.00, 229.1, 356.9)">i</text><text xml:space="preserve" font-family="GillSans,Gill Sans" font-size="30.0" fill="#000000" transform="matrix(1.00, 0.00, -0.00, -1.00, 235.7, 356.9)">m</text><text xml:space="preserve" font-family="GillSans,Gill Sans" font-size="30.0" fill="#000000" transform="matrix(1.00, 0.00, -0.00, -1.00, 258.8, 356.9)">e</text><text xml:space="preserve" font-family="GillSans,Gill Sans" font-size="30.0" fill="#000000" transform="matrix(1.00, 0.00, -0.00, -1.00, 273.2, 356.9)">n</text><text xml:space="preserve" font-family="GillSans,Gill Sans" font-size="30.0" fill="#000000" transform="matrix(1.00, 0.00, -0.00, -1.00, 288.2, 356.9)">t</text><text xml:space="preserve" font-family="GillSans,Gill Sans" font-size="30.0" fill="#000000" transform="matrix(1.00, 0.00, -0.00, -1.00, 298.2, 356.9)"> </text><text xml:space="preserve" font-family="GillSans,Gill Sans" font-size="30.0" fill="#000000" transform="matrix(1.00, 0.00, -0.00, -1.00, 306.5, 356.9)">s</text><text xml:space="preserve" font-family="GillSans,Gill Sans" font-size="30.0" fill="#000000" transform="matrix(1.00, 0.00, -0.00, -1.00, 318.0, 356.9)">c</text><text xml:space="preserve" font-family="GillSans,Gill Sans" font-size="30.0" fill="#000000" transform="matrix(1.00, 0.00, -0.00, -1.00, 331.2, 356.9)">o</text><text xml:space="preserve" font-family="GillSans,Gill Sans" font-size="30.0" fill="#000000" transform="matrix(1.00, 0.00, -0.00, -1.00, 347.7, 356.9)">r</text><text xml:space="preserve" font-family="GillSans,Gill Sans" font-size="30.0" fill="#000000" transform="matrix(1.00, 0.00, -0.00, -1.00, 359.0, 356.9)">e</text><text xml:space="preserve" font-family="GillSans,Gill Sans" font-size="30.0" fill="#000000" transform="matrix(1.00, 0.00, -0.00, -1.00, 373.4, 356.9)"> </text><text xml:space="preserve" font-family="GillSans,Gill Sans" font-size="30.0" fill="#000000" transform="matrix(1.00, 0.00, -0.00, -1.00, 381.7, 356.9)">b</text><text xml:space="preserve" font-family="GillSans,Gill Sans" font-size="30.0" fill="#000000" transform="matrix(1.00, 0.00, -0.00, -1.00, 396.7, 356.9)">u</text><text xml:space="preserve" font-family="GillSans,Gill Sans" font-size="30.0" fill="#000000" transform="matrix(1.00, 0.00, -0.00, -1.00, 411.7, 356.9)">i</text><text xml:space="preserve" font-family="GillSans,Gill Sans" font-size="30.0" fill="#000000" transform="matrix(1.00, 0.00, -0.00, -1.00, 418.3, 356.9)">l</text><text xml:space="preserve" font-family="GillSans,Gill Sans" font-size="30.0" fill="#000000" transform="matrix(1.00, 0.00, -0.00, -1.00, 424.9, 356.9)">t</text><text xml:space="preserve" font-family="GillSans,Gill Sans" font-size="30.0" fill="#000000" transform="matrix(1.00, 0.00, -0.00, -1.00, 434.9, 356.9)"> </text><text xml:space="preserve" font-family="GillSans,Gill Sans" font-size="30.0" fill="#000000" transform="matrix(1.00, 0.00, -0.00, -1.00, 443.2, 356.9)">f</text><text xml:space="preserve" font-family="GillSans,Gill Sans" font-size="30.0" fill="#000000" transform="matrix(1.00, 0.00, -0.00, -1.00, 450.7, 356.9)">r</text><text xml:space="preserve" font-family="GillSans,Gill Sans" font-size="30.0" fill="#000000" transform="matrix(1.00, 0.00, -0.00, -1.00, 461.8, 356.9)">o</text><text xml:space="preserve" font-family="GillSans,Gill Sans" font-size="30.0" fill="#000000" transform="matrix(1.00, 0.00, -0.00, -1.00, 478.4, 356.9)">m</text><text xml:space="preserve" font-family="GillSans,Gill Sans" font-size="30.0" fill="#000000" transform="matrix(1.00, 0.00, -0.00, -1.00, 501.5, 356.9)"> </text><text xml:space="preserve" font-family="GillSans,Gill Sans" font-size="30.0" fill="#000000" transform="matrix(1.00, 0.00, -0.00, -1.00, 509.8, 356.9)">t</text><text xml:space="preserve" font-family="GillSans,Gill Sans" font-size="30.0" fill="#000000" transform="matrix(1.00, 0.00, -0.00, -1.00, 519.8, 356.9)">h</text><text xml:space="preserve" font-family="GillSans,Gill Sans" font-size="30.0" fill="#000000" transform="matrix(1.00, 0.00, -0.00, -1.00, 534.8, 356.9)">e</text><text xml:space="preserve" font-family="GillSans,Gill Sans" font-size="30.0" fill="#000000" transform="matrix(1.00, 0.00, -0.00, -1.00, 549.2, 356.9)"> </text><text xml:space="preserve" font-family="GillSans,Gill Sans" font-size="30.0" fill="#000000" transform="matrix(1.00, 0.00, -0.00, -1.00, 557.5, 356.9)">p</text><text xml:space="preserve" font-family="GillSans,Gill Sans" font-size="30.0" fill="#000000" transform="matrix(1.00, 0.00, -0.00, -1.00, 572.5, 356.9)">a</text><text xml:space="preserve" font-family="GillSans,Gill Sans" font-size="30.0" fill="#000000" transform="matrix(1.00, 0.00, -0.00, -1.00, 585.3, 356.9)">t</text><text xml:space="preserve" font-family="GillSans,Gill Sans" font-size="30.0" fill="#000000" transform="matrix(1.00, 0.00, -0.00, -1.00, 595.3, 356.9)">h</text><text xml:space="preserve" font-family="GillSans,Gill Sans" font-size="30.0" fill="#000000" transform="matrix(1.00, 0.00, -0.00, -1.00, 610.3, 356.9)"> </text><text xml:space="preserve" font-family="GillSans,Gill Sans" font-size="30.0" fill="#000000" transform="matrix(1.00, 0.00, -0.00, -1.00, 618.6, 356.9)">s</text><text xml:space="preserve" font-family="GillSans,Gill Sans" font-size="30.0" fill="#000000" transform="matrix(1.00, 0.00, -0.00, -1.00, 630.2, 356.9)">i</text><text xml:space="preserve" font-family="GillSans,Gill Sans" font-size="30.0" fill="#000000" transform="matrix(1.00, 0.00, -0.00, -1.00, 636.8, 356.9)">m</text><text xml:space="preserve" font-family="GillSans,Gill Sans" font-size="30.0" fill="#000000" transform="matrix(1.00, 0.00, -0.00, -1.00, 659.9, 356.9)">i</text><text xml:space="preserve" font-family="GillSans,Gill Sans" font-size="30.0" fill="#000000" transform="matrix(1.00, 0.00, -0.00, -1.00, 666.5, 356.9)">l</text><text xml:space="preserve" font-family="GillSans,Gill Sans" font-size="30.0" fill="#000000" transform="matrix(1.00, 0.00, -0.00, -1.00, 673.1, 356.9)">a</text><text xml:space="preserve" font-family="GillSans,Gill Sans" font-size="30.0" fill="#000000" transform="matrix(1.00, 0.00, -0.00, -1.00, 685.8, 356.9)">r</text><text xml:space="preserve" font-family="GillSans,Gill Sans" font-size="30.0" fill="#000000" transform="matrix(1.00, 0.00, -0.00, -1.00, 697.7, 356.9)">i</text><text xml:space="preserve" font-family="GillSans,Gill Sans" font-size="30.0" fill="#000000" transform="matrix(1.00, 0.00, -0.00, -1.00, 704.3, 356.9)">t</text><text xml:space="preserve" font-family="GillSans,Gill Sans" font-size="30.0" fill="#000000" transform="matrix(1.00, 0.00, -0.00, -1.00, 714.3, 356.9)">y</text><text xml:space="preserve" font-family="GillSans,Gill Sans" font-size="30.0" fill="#000000" transform="matrix(1.00, 0.00, -0.00, -1.00, 727.4, 356.9)"> </text><text xml:space="preserve" font-family="GillSans,Gill Sans" font-size="30.0" fill="#000000" transform="matrix(1.00, 0.00, -0.00, -1.00, 735.8, 356.9)">b</text><text xml:space="preserve" font-family="GillSans,Gill Sans" font-size="30.0" fill="#000000" transform="matrix(1.00, 0.00, -0.00, -1.00, 750.8, 356.9)">e</text><text xml:space="preserve" font-family="GillSans,Gill Sans" font-size="30.0" fill="#000000" transform="matrix(1.00, 0.00, -0.00, -1.00, 765.1, 356.9)">t</text><text xml:space="preserve" font-family="GillSans,Gill Sans" font-size="30.0" fill="#000000" transform="matrix(1.00, 0.00, -0.00, -1.00, 775.1, 356.9)">w</text><text xml:space="preserve" font-family="GillSans,Gill Sans" font-size="30.0" fill="#000000" transform="matrix(1.00, 0.00, -0.00, -1.00, 796.1, 356.9)">e</text><text xml:space="preserve" font-family="GillSans,Gill Sans" font-size="30.0" fill="#000000" transform="matrix(1.00, 0.00, -0.00, -1.00, 810.5, 356.9)">e</text><text xml:space="preserve" font-family="GillSans,Gill Sans" font-size="30.0" fill="#000000" transform="matrix(1.00, 0.00, -0.00, -1.00, 824.9, 356.9)">n</text><text xml:space="preserve" font-family="GillSans,Gill Sans" font-size="30.0" fill="#000000" transform="matrix(1.00, 0.00, -0.00, -1.00, 839.9, 356.9)"> </text><text xml:space="preserve" font-family="GillSans,Gill Sans" font-size="30.0" fill="#000000" transform="matrix(1.00, 0.00, -0.00, -1.00, 848.2, 356.9)">t</text><text xml:space="preserve" font-family="GillSans,Gill Sans" font-size="30.0" fill="#000000" transform="matrix(1.00, 0.00, -0.00, -1.00, 858.2, 356.9)">h</text><text xml:space="preserve" font-family="GillSans,Gill Sans" font-size="30.0" fill="#000000" transform="matrix(1.00, 0.00, -0.00, -1.00, 873.2, 356.9)">e</text><text xml:space="preserve" font-family="GillSans,Gill Sans" font-size="30.0" fill="#000000" transform="matrix(1.00, 0.00, -0.00, -1.00, 887.5, 356.9)"> </text><text xml:space="preserve" font-family="GillSans,Gill Sans" font-size="30.0" fill="#000000" transform="matrix(1.00, 0.00, -0.00, -1.00, 176.0, 321.9)">s</text><text xml:space="preserve" font-family="GillSans,Gill Sans" font-size="30.0" fill="#000000" transform="matrix(1.00, 0.00, -0.00, -1.00, 187.5, 321.9)">e</text><text xml:space="preserve" font-family="GillSans,Gill Sans" font-size="30.0" fill="#000000" transform="matrix(1.00, 0.00, -0.00, -1.00, 201.9, 321.9)">e</text><text xml:space="preserve" font-family="GillSans,Gill Sans" font-size="30.0" fill="#000000" transform="matrix(1.00, 0.00, -0.00, -1.00, 216.3, 321.9)">d</text><text xml:space="preserve" font-family="GillSans,Gill Sans" font-size="30.0" fill="#000000" transform="matrix(1.00, 0.00, -0.00, -1.00, 231.6, 321.9)"> </text><text xml:space="preserve" font-family="GillSans,Gill Sans" font-size="30.0" fill="#000000" transform="matrix(1.00, 0.00, -0.00, -1.00, 239.9, 321.9)">w</text><text xml:space="preserve" font-family="GillSans,Gill Sans" font-size="30.0" fill="#000000" transform="matrix(1.00, 0.00, -0.00, -1.00, 260.9, 321.9)">o</text><text xml:space="preserve" font-family="GillSans,Gill Sans" font-size="30.0" fill="#000000" transform="matrix(1.00, 0.00, -0.00, -1.00, 277.4, 321.9)">r</text><text xml:space="preserve" font-family="GillSans,Gill Sans" font-size="30.0" fill="#000000" transform="matrix(1.00, 0.00, -0.00, -1.00, 288.8, 321.9)">d</text><text xml:space="preserve" font-family="GillSans,Gill Sans" font-size="30.0" fill="#000000" transform="matrix(1.00, 0.00, -0.00, -1.00, 304.1, 321.9)">s</text><text xml:space="preserve" font-family="GillSans,Gill Sans" font-size="30.0" fill="#000000" transform="matrix(1.00, 0.00, -0.00, -1.00, 315.7, 321.9)"> </text><text xml:space="preserve" font-family="GillSans,Gill Sans" font-size="30.0" fill="#000000" transform="matrix(1.00, 0.00, -0.00, -1.00, 324.0, 321.9)">a</text><text xml:space="preserve" font-family="GillSans,Gill Sans" font-size="30.0" fill="#000000" transform="matrix(1.00, 0.00, -0.00, -1.00, 336.8, 321.9)">n</text><text xml:space="preserve" font-family="GillSans,Gill Sans" font-size="30.0" fill="#000000" transform="matrix(1.00, 0.00, -0.00, -1.00, 351.8, 321.9)">d</text><text xml:space="preserve" font-family="GillSans,Gill Sans" font-size="30.0" fill="#000000" transform="matrix(1.00, 0.00, -0.00, -1.00, 367.1, 321.9)"> </text><text xml:space="preserve" font-family="GillSans,Gill Sans" font-size="30.0" fill="#000000" transform="matrix(1.00, 0.00, -0.00, -1.00, 375.4, 321.9)">t</text><text xml:space="preserve" font-family="GillSans,Gill Sans" font-size="30.0" fill="#000000" transform="matrix(1.00, 0.00, -0.00, -1.00, 385.4, 321.9)">h</text><text xml:space="preserve" font-family="GillSans,Gill Sans" font-size="30.0" fill="#000000" transform="matrix(1.00, 0.00, -0.00, -1.00, 400.4, 321.9)">e</text><text xml:space="preserve" font-family="GillSans,Gill Sans" font-size="30.0" fill="#000000" transform="matrix(1.00, 0.00, -0.00, -1.00, 414.8, 321.9)"> </text><text xml:space="preserve" font-family="GillSans,Gill Sans" font-size="30.0" fill="#000000" transform="matrix(1.00, 0.00, -0.00, -1.00, 423.1, 321.9)">a</text><text xml:space="preserve" font-family="GillSans,Gill Sans" font-size="30.0" fill="#000000" transform="matrix(1.00, 0.00, -0.00, -1.00, 435.9, 321.9)">r</text><text xml:space="preserve" font-family="GillSans,Gill Sans" font-size="30.0" fill="#000000" transform="matrix(1.00, 0.00, -0.00, -1.00, 448.4, 321.9)">t</text><text xml:space="preserve" font-family="GillSans,Gill Sans" font-size="30.0" fill="#000000" transform="matrix(1.00, 0.00, -0.00, -1.00, 458.4, 321.9)">i</text><text xml:space="preserve" font-family="GillSans,Gill Sans" font-size="30.0" fill="#000000" transform="matrix(1.00, 0.00, -0.00, -1.00, 465.0, 321.9)">c</text><text xml:space="preserve" font-family="GillSans,Gill Sans" font-size="30.0" fill="#000000" transform="matrix(1.00, 0.00, -0.00, -1.00, 478.1, 321.9)">l</text><text xml:space="preserve" font-family="GillSans,Gill Sans" font-size="30.0" fill="#000000" transform="matrix(1.00, 0.00, -0.00, -1.00, 484.7, 321.9)">e</text><text xml:space="preserve" font-family="GillSans,Gill Sans" font-size="30.0" fill="#000000" transform="matrix(1.00, 0.00, -0.00, -1.00, 499.0, 321.9)"> </text><text xml:space="preserve" font-family="GillSans,Gill Sans" font-size="30.0" fill="#000000" transform="matrix(1.00, 0.00, -0.00, -1.00, 507.4, 321.9)">w</text><text xml:space="preserve" font-family="GillSans,Gill Sans" font-size="30.0" fill="#000000" transform="matrix(1.00, 0.00, -0.00, -1.00, 528.4, 321.9)">o</text><text xml:space="preserve" font-family="GillSans,Gill Sans" font-size="30.0" fill="#000000" transform="matrix(1.00, 0.00, -0.00, -1.00, 544.9, 321.9)">r</text><text xml:space="preserve" font-family="GillSans,Gill Sans" font-size="30.0" fill="#000000" transform="matrix(1.00, 0.00, -0.00, -1.00, 556.3, 321.9)">d</text><text xml:space="preserve" font-family="GillSans,Gill Sans" font-size="30.0" fill="#000000" transform="matrix(1.00, 0.00, -0.00, -1.00, 571.6, 321.9)">s</text></g></g><image xlink:href="../../6B095AF4-2B08-4EBB-9A30-9587C8636190/assets/5B98A547BF3D116CD2C2F16567E9DB1E.png" width="520.00" height="134.00" transform="matrix(1.00, 0.00, -0.00, -1.00, 0.0, 143.0)"></image><image xlink:href="../../6B095AF4-2B08-4EBB-9A30-9587C8636190/assets/B329E0264C103BF56E55848DD31661BD.png" width="533.00" height="41.00" transform="matrix(1.00, 0.00, -0.00, -1.00, 0.0, 177.0)"></image><image xlink:href="../../6B095AF4-2B08-4EBB-9A30-9587C8636190/assets/044239304BE878D7CF73087E53BB4463.png" width="507.00" height="149.00" transform="matrix(1.00, 0.00, -0.00, -1.00, 520.0, 241.0)"></image></g></svg>