<?xml version="1.0" encoding="UTF-8" standalone="no"?><svg xmlns="http://www.w3.org/2000/svg" xmlns:xlink="http://www.w3.org/1999/xlink" clip-rule="evenodd" stroke-miterlimit="10" viewBox="0 0 1024 768"><desc>SVG generated by Keynote</desc><defs></defs><g transform="matrix(1.00, 0.00, -0.00, -1.00, 0.0, 768.0)"><path d="M 0.0 768.0 L 1024.0 768.0 L 1024.0 0.0 L 0.0 0.0 Z M 0.0 768.0 " fill="#FEFFFF"></path><image xlink:href="../../79CEC0ED-B611-4695-B06F-D725DFC4C3AD/assets/8F475106A2362E144E9438ED9453580C.jpeg" width="1153.00" height="768.00" transform="matrix(1.00, 0.00, -0.00, -1.00, -121.0, 768.0)"></image><path d="M 100.5 747.5 L 924.5 747.5 L 924.5 619.5 L 100.5 619.5 Z M 100.0 748.0 " fill="#FFFFFF"></path><path d="M 0.5 0.5 L 824.5 0.5 L 824.5 128.5 L 0.5 128.5 Z M 0.0 0.0 " fill="none" stroke="#000000" stroke-width="3.00" transform="matrix(1.00, 0.00, 0.00, -1.00, 100.0, 748.0)"></path><g><clipPath id="clip0x7ffbef790d70"><path d="M 87.6 622.0 L 936.4 622.0 L 936.4 746.0 L 87.6 746.0 Z M 87.6 622.0 "></path></clipPath><g clip-path="url(#clip0x7ffbef790d70)"><text xml:space="preserve" font-family="GillSans,Gill Sans" font-size="64.0" fill="#000000" transform="matrix(1.00, 0.00, -0.00, -1.00, 381.6, 661.8)">A</text><text xml:space="preserve" font-family="GillSans,Gill Sans" font-size="64.0" fill="#000000" transform="matrix(1.00, 0.00, -0.00, -1.00, 424.3, 661.8)">l</text><text xml:space="preserve" font-family="GillSans,Gill Sans" font-size="64.0" fill="#000000" transform="matrix(1.00, 0.00, -0.00, -1.00, 438.4, 661.8)">g</text><text xml:space="preserve" font-family="GillSans,Gill Sans" font-size="64.0" fill="#000000" transform="matrix(1.00, 0.00, -0.00, -1.00, 465.0, 661.8)">o</text><text xml:space="preserve" font-family="GillSans,Gill Sans" font-size="64.0" fill="#000000" transform="matrix(1.00, 0.00, -0.00, -1.00, 500.3, 661.8)">r</text><text xml:space="preserve" font-family="GillSans,Gill Sans" font-size="64.0" fill="#000000" transform="matrix(1.00, 0.00, -0.00, -1.00, 525.7, 661.8)">i</text><text xml:space="preserve" font-family="GillSans,Gill Sans" font-size="64.0" fill="#000000" transform="matrix(1.00, 0.00, -0.00, -1.00, 539.7, 661.8)">t</text><text xml:space="preserve" font-family="GillSans,Gill Sans" font-size="64.0" fill="#000000" transform="matrix(1.00, 0.00, -0.00, -1.00, 561.0, 661.8)">h</text><text xml:space="preserve" font-family="GillSans,Gill Sans" font-size="64.0" fill="#000000" transform="matrix(1.00, 0.00, -0.00, -1.00, 593.0, 661.8)">m</text></g></g><image xlink:href="../../350B3B4B-7390-4EA6-B165-B5491DCAD4FD/assets/9D35FCB60EC7052319831191A6E9FF40.png" width="627.00" height="524.00" transform="matrix(0.74, 0.00, -0.00, -0.74, 543.0, 509.0)"></image><path d="M -0.4 -0.3 L 465.6 -0.3 L 465.6 388.7 L -0.4 388.7 Z M -0.4 -0.3 " fill="none" stroke="#000000" stroke-width="2.00" transform="matrix(1.00, 0.00, 0.00, -1.00, 543.4, 508.7)"></path><image xlink:href="../../EBDB7B95-C904-4428-8CC8-CDC60545FC98/assets/279D09A1EF94134914067C88727A2D63.png" width="723.00" height="568.00" transform="matrix(0.68, 0.00, -0.00, -0.68, 16.0, 508.0)"></image><path d="M 0.3 0.3 L 494.3 0.3 L 494.3 388.3 L 0.3 388.3 Z M 0.3 0.3 " fill="none" stroke="#000000" stroke-width="3.00" transform="matrix(1.00, 0.00, 0.00, -1.00, 15.7, 508.3)"></path></g></svg>