<?xml version="1.0" encoding="UTF-8" standalone="no"?><svg xmlns="http://www.w3.org/2000/svg" xmlns:xlink="http://www.w3.org/1999/xlink" clip-rule="evenodd" stroke-miterlimit="10" viewBox="0 0 1024 768"><desc>SVG generated by Keynote</desc><defs></defs><g transform="matrix(1.00, 0.00, -0.00, -1.00, 0.0, 768.0)"><path d="M 0.0 768.0 L 1024.0 768.0 L 1024.0 0.0 L 0.0 0.0 Z M 0.0 768.0 " fill="#FEFFFF"></path><image xlink:href="../../79CEC0ED-B611-4695-B06F-D725DFC4C3AD/assets/8F475106A2362E144E9438ED9453580C.jpeg" width="1153.00" height="768.00" transform="matrix(1.00, 0.00, -0.00, -1.00, -121.0, 768.0)"></image><path d="M 100.5 747.5 L 924.5 747.5 L 924.5 619.5 L 100.5 619.5 Z M 100.0 748.0 " fill="#FFFFFF"></path><path d="M 0.5 0.5 L 824.5 0.5 L 824.5 128.5 L 0.5 128.5 Z M 0.0 0.0 " fill="none" stroke="#000000" stroke-width="3.00" transform="matrix(1.00, 0.00, 0.00, -1.00, 100.0, 748.0)"></path><g><clipPath id="clip0x7ffbef5513b0"><path d="M 87.6 622.0 L 936.4 622.0 L 936.4 746.0 L 87.6 746.0 Z M 87.6 622.0 "></path></clipPath><g clip-path="url(#clip0x7ffbef5513b0)"><text xml:space="preserve" font-family="GillSans,Gill Sans" font-size="64.0" fill="#000000" transform="matrix(1.00, 0.00, -0.00, -1.00, 182.7, 661.8)">S</text><text xml:space="preserve" font-family="GillSans,Gill Sans" font-size="64.0" fill="#000000" transform="matrix(1.00, 0.00, -0.00, -1.00, 212.0, 661.8)">e</text><text xml:space="preserve" font-family="GillSans,Gill Sans" font-size="64.0" fill="#000000" transform="matrix(1.00, 0.00, -0.00, -1.00, 242.6, 661.8)">g</text><text xml:space="preserve" font-family="GillSans,Gill Sans" font-size="64.0" fill="#000000" transform="matrix(1.00, 0.00, -0.00, -1.00, 269.9, 661.8)">m</text><text xml:space="preserve" font-family="GillSans,Gill Sans" font-size="64.0" fill="#000000" transform="matrix(1.00, 0.00, -0.00, -1.00, 319.3, 661.8)">e</text><text xml:space="preserve" font-family="GillSans,Gill Sans" font-size="64.0" fill="#000000" transform="matrix(1.00, 0.00, -0.00, -1.00, 349.9, 661.8)">n</text><text xml:space="preserve" font-family="GillSans,Gill Sans" font-size="64.0" fill="#000000" transform="matrix(1.00, 0.00, -0.00, -1.00, 381.9, 661.8)">t</text><text xml:space="preserve" font-family="GillSans,Gill Sans" font-size="64.0" fill="#000000" transform="matrix(1.00, 0.00, -0.00, -1.00, 403.2, 661.8)">i</text><text xml:space="preserve" font-family="GillSans,Gill Sans" font-size="64.0" fill="#000000" transform="matrix(1.00, 0.00, -0.00, -1.00, 417.3, 661.8)">n</text><text xml:space="preserve" font-family="GillSans,Gill Sans" font-size="64.0" fill="#000000" transform="matrix(1.00, 0.00, -0.00, -1.00, 449.3, 661.8)">g</text><text xml:space="preserve" font-family="GillSans,Gill Sans" font-size="64.0" fill="#000000" transform="matrix(1.00, 0.00, -0.00, -1.00, 476.6, 661.8)"> </text><text xml:space="preserve" font-family="GillSans,Gill Sans" font-size="64.0" fill="#000000" transform="matrix(1.00, 0.00, -0.00, -1.00, 494.3, 661.8)">b</text><text xml:space="preserve" font-family="GillSans,Gill Sans" font-size="64.0" fill="#000000" transform="matrix(1.00, 0.00, -0.00, -1.00, 525.7, 661.8)">y</text><text xml:space="preserve" font-family="GillSans,Gill Sans" font-size="64.0" fill="#000000" transform="matrix(1.00, 0.00, -0.00, -1.00, 553.8, 661.8)"> </text><text xml:space="preserve" font-family="GillSans,Gill Sans" font-size="64.0" fill="#000000" transform="matrix(1.00, 0.00, -0.00, -1.00, 571.5, 661.8)">J</text><text xml:space="preserve" font-family="GillSans,Gill Sans" font-size="64.0" fill="#000000" transform="matrix(1.00, 0.00, -0.00, -1.00, 586.2, 661.8)">o</text><text xml:space="preserve" font-family="GillSans,Gill Sans" font-size="64.0" fill="#000000" transform="matrix(1.00, 0.00, -0.00, -1.00, 621.5, 661.8)">b</text><text xml:space="preserve" font-family="GillSans,Gill Sans" font-size="64.0" fill="#000000" transform="matrix(1.00, 0.00, -0.00, -1.00, 653.5, 661.8)"> </text><text xml:space="preserve" font-family="GillSans,Gill Sans" font-size="64.0" fill="#000000" transform="matrix(1.00, 0.00, -0.00, -1.00, 671.3, 661.8)">S</text><text xml:space="preserve" font-family="GillSans,Gill Sans" font-size="64.0" fill="#000000" transform="matrix(1.00, 0.00, -0.00, -1.00, 700.6, 661.8)">e</text><text xml:space="preserve" font-family="GillSans,Gill Sans" font-size="64.0" fill="#000000" transform="matrix(1.00, 0.00, -0.00, -1.00, 731.3, 661.8)">c</text><text xml:space="preserve" font-family="GillSans,Gill Sans" font-size="64.0" fill="#000000" transform="matrix(1.00, 0.00, -0.00, -1.00, 759.3, 661.8)">t</text><text xml:space="preserve" font-family="GillSans,Gill Sans" font-size="64.0" fill="#000000" transform="matrix(1.00, 0.00, -0.00, -1.00, 780.6, 661.8)">o</text><text xml:space="preserve" font-family="GillSans,Gill Sans" font-size="64.0" fill="#000000" transform="matrix(1.00, 0.00, -0.00, -1.00, 815.9, 661.8)">r</text></g></g><image xlink:href="95DC547856AA3F8A74783BB1E6FAC2F8.png" width="654.00" height="529.00" transform="matrix(0.81, 0.00, -0.00, -0.81, 9.0, 586.0)"></image><path d="M 0.3 0.4 L 532.3 0.4 L 532.3 430.4 L 0.3 430.4 Z M 0.3 0.4 " fill="none" stroke="#000000" stroke-width="3.00" transform="matrix(1.00, 0.00, 0.00, -1.00, 8.7, 586.4)"></path><image xlink:href="7DE4653B4D08805CFB3965CFC6A5BF21.png" width="660.00" height="502.00" transform="matrix(0.71, 0.00, -0.00, -0.71, 549.0, 362.0)"></image><path d="M 0.0 -0.0 L 471.0 -0.0 L 471.0 358.0 L 0.0 358.0 Z M 0.0 -0.0 " fill="none" stroke="#000000" stroke-width="3.00" transform="matrix(1.00, 0.00, 0.00, -1.00, 549.0, 362.0)"></path></g></svg>