<?xml version="1.0" encoding="UTF-8" standalone="no"?><svg xmlns="http://www.w3.org/2000/svg" xmlns:xlink="http://www.w3.org/1999/xlink" clip-rule="evenodd" stroke-miterlimit="10" viewBox="0 0 1024 768"><desc>SVG generated by Keynote</desc><defs></defs><g transform="matrix(1.00, 0.00, -0.00, -1.00, 0.0, 768.0)"><path d="M 0.0 768.0 L 1024.0 768.0 L 1024.0 0.0 L 0.0 0.0 Z M 0.0 768.0 " fill="#FEFFFF"></path><image xlink:href="../../79CEC0ED-B611-4695-B06F-D725DFC4C3AD/assets/8F475106A2362E144E9438ED9453580C.jpeg" width="1153.00" height="768.00" transform="matrix(1.00, 0.00, -0.00, -1.00, -121.0, 768.0)"></image><path d="M 100.5 673.5 L 924.5 673.5 L 924.5 545.5 L 100.5 545.5 Z M 100.0 673.3 " fill="#FFFFFF"></path><path d="M 0.5 -0.2 L 824.5 -0.2 L 824.5 127.8 L 0.5 127.8 Z M 0.0 0.0 " fill="none" stroke="#000000" stroke-width="3.00" transform="matrix(1.00, 0.00, 0.00, -1.00, 100.0, 673.3)"></path><g><clipPath id="clip0x7ffbef692d50"><path d="M 87.6 547.3 L 936.4 547.3 L 936.4 671.3 L 87.6 671.3 Z M 87.6 547.3 "></path></clipPath><g clip-path="url(#clip0x7ffbef692d50)"><text xml:space="preserve" font-family="GillSans,Gill Sans" font-size="64.0" fill="#000000" transform="matrix(1.00, 0.00, -0.00, -1.00, 367.1, 587.1)">T</text><text xml:space="preserve" font-family="GillSans,Gill Sans" font-size="64.0" fill="#000000" transform="matrix(1.00, 0.00, -0.00, -1.00, 405.8, 587.1)">h</text><text xml:space="preserve" font-family="GillSans,Gill Sans" font-size="64.0" fill="#000000" transform="matrix(1.00, 0.00, -0.00, -1.00, 437.8, 587.1)">a</text><text xml:space="preserve" font-family="GillSans,Gill Sans" font-size="64.0" fill="#000000" transform="matrix(1.00, 0.00, -0.00, -1.00, 465.0, 587.1)">n</text><text xml:space="preserve" font-family="GillSans,Gill Sans" font-size="64.0" fill="#000000" transform="matrix(1.00, 0.00, -0.00, -1.00, 497.0, 587.1)">k</text><text xml:space="preserve" font-family="GillSans,Gill Sans" font-size="64.0" fill="#000000" transform="matrix(1.00, 0.00, -0.00, -1.00, 527.7, 587.1)"> </text><text xml:space="preserve" font-family="GillSans,Gill Sans" font-size="64.0" fill="#000000" transform="matrix(1.00, 0.00, -0.00, -1.00, 545.5, 587.1)">y</text><text xml:space="preserve" font-family="GillSans,Gill Sans" font-size="64.0" fill="#000000" transform="matrix(1.00, 0.00, -0.00, -1.00, 572.2, 587.1)">o</text><text xml:space="preserve" font-family="GillSans,Gill Sans" font-size="64.0" fill="#000000" transform="matrix(1.00, 0.00, -0.00, -1.00, 607.5, 587.1)">u</text><text xml:space="preserve" font-family="GillSans,Gill Sans" font-size="64.0" fill="#000000" transform="matrix(1.00, 0.00, -0.00, -1.00, 639.5, 587.1)">!</text></g></g></g></svg>